<svg width="98" height="26" viewBox="0 0 98 26" fill="none" xmlns="http://www.w3.org/2000/svg">
<path d="M10.4438 3.71094V11.2025H3.3607V3.71094H0V21.5997H3.3607V14.3532H10.4438V21.5997H13.8162V3.71094H10.4438Z" fill="#335658" fill-opacity="0.7"/>
<path d="M25.1704 15.7539C25.1704 16.4997 24.8741 17.215 24.3467 17.7424C23.8193 18.2698 23.104 18.5661 22.3582 18.5661C21.6123 18.5661 20.897 18.2698 20.3696 17.7424C19.8422 17.215 19.5459 16.4997 19.5459 15.7539V8.16895H16.3369V15.7539C16.3736 17.3148 17.0284 18.7974 18.1573 19.876C19.2863 20.9547 20.7971 21.5412 22.3582 21.5067C23.1321 21.5253 23.9021 21.3913 24.6242 21.1122C25.3463 20.8331 26.0063 20.4145 26.5666 19.8802C27.1268 19.346 27.5763 18.7066 27.8894 17.9986C28.2024 17.2906 28.3729 16.5278 28.3911 15.7539V8.16895H25.1704V15.7539Z" fill="#335658" fill-opacity="0.7"/>
<path d="M49.0104 8.95056C49.0104 7.3869 50.1773 6.8968 51.3442 6.8968C52.509 7.02765 53.5889 7.56967 54.3899 8.42545L56.502 6.09163C55.8828 5.38248 55.1236 4.80907 54.2721 4.40743C53.4207 4.0058 52.4953 3.78463 51.5543 3.75781C48.0302 3.75781 45.5097 5.67154 45.5097 8.95056C45.5097 14.9485 53.2113 13.0464 53.2113 16.4071C53.1522 16.9717 52.8754 17.491 52.4396 17.8548C52.0039 18.2187 51.4435 18.3984 50.8775 18.3558C50.2025 18.3635 49.5367 18.1994 48.9427 17.8789C48.3487 17.5584 47.8459 17.0921 47.4818 16.5238L45.1479 18.8576C45.8121 19.6946 46.659 20.3685 47.6238 20.8276C48.5886 21.2867 49.6457 21.519 50.7141 21.5065C54.0398 21.5065 56.712 19.5344 56.712 16.4421C56.712 9.77906 49.0104 11.8445 49.0104 8.96223" fill="#335658" fill-opacity="0.7"/>
<path d="M96.7019 18.6593C94.7998 18.6593 94.2514 17.8775 94.2514 16.6639V11.3428H97.2153V8.64721H94.2514V5.14648L91.019 6.48843V17.3407C91.019 20.1179 93.0261 21.5182 95.78 21.5182C96.2139 21.5181 96.6471 21.4829 97.0753 21.4132L97.8688 18.6243C97.5071 18.6243 97.0986 18.6243 96.7019 18.6243" fill="#335658" fill-opacity="0.7"/>
<path d="M37.446 8.25086C36.7484 8.21886 36.0517 8.33081 35.3992 8.57975C34.7468 8.82869 34.1526 9.20928 33.6536 9.69783V3.86328H30.4212V14.6805C30.3916 15.5595 30.5379 16.4356 30.8514 17.2573C31.165 18.079 31.6394 18.8298 32.247 19.4656C32.8546 20.1015 33.5831 20.6096 34.3897 20.9601C35.1963 21.3107 36.0648 21.4966 36.9442 21.5069C37.8522 21.5445 38.7587 21.4029 39.6119 21.0901C40.4651 20.7773 41.2483 20.2996 41.9169 19.6841C42.5855 19.0686 43.1263 18.3275 43.5084 17.503C43.8905 16.6785 44.1065 15.7869 44.1441 14.8789C44.1395 14.0039 43.9626 13.1384 43.6235 12.3317C43.2844 11.5251 42.7898 10.7931 42.1678 10.1776C41.5458 9.56217 40.8087 9.07523 39.9985 8.74463C39.1884 8.41404 38.321 8.24625 37.446 8.25086V8.25086ZM37.446 18.4146C36.9755 18.4255 36.5075 18.3435 36.0687 18.1735C35.6299 18.0034 35.2289 17.7485 34.8887 17.4234C34.5484 17.0983 34.2755 16.7094 34.0856 16.2788C33.8957 15.8482 33.7925 15.3844 33.7819 14.9139C33.7819 13.9421 34.168 13.0102 34.8551 12.323C35.5423 11.6359 36.4742 11.2498 37.446 11.2498C38.4178 11.2498 39.3498 11.6359 40.0369 12.323C40.7241 13.0102 41.1101 13.9421 41.1101 14.9139C41.0995 15.3844 40.9963 15.8482 40.8064 16.2788C40.6165 16.7094 40.3436 17.0983 40.0034 17.4234C39.6631 17.7485 39.2621 18.0034 38.8233 18.1735C38.3845 18.3435 37.9165 18.4255 37.446 18.4146" fill="#335658" fill-opacity="0.7"/>
<path d="M72.5114 14.7147C72.4325 12.8894 71.6349 11.1693 70.2926 9.92981C68.9504 8.69029 67.1724 8.03192 65.3465 8.09833C64.4667 8.10562 63.5972 8.28895 62.7893 8.63753C61.9814 8.9861 61.2514 9.49287 60.6424 10.128C60.0334 10.7631 59.5577 11.5136 59.2433 12.3354C58.9289 13.1573 58.7822 14.0337 58.8118 14.9131V25.742H62.0442V19.9074C62.5432 20.396 63.1374 20.7766 63.7899 21.0255C64.4423 21.2745 65.139 21.3864 65.8366 21.3544C66.7116 21.359 67.579 21.1912 68.3892 20.8606C69.1993 20.53 69.9364 20.0431 70.5584 19.4276C71.1804 18.8122 71.675 18.0802 72.0141 17.2736C72.3532 16.4669 72.5301 15.6014 72.5347 14.7264L72.5114 14.7147ZM69.4774 14.7264C69.4774 15.6982 69.0914 16.6301 68.4042 17.3173C67.7171 18.0044 66.7851 18.3905 65.8133 18.3905C64.8415 18.3905 63.9095 18.0044 63.2224 17.3173C62.5352 16.6301 62.1492 15.6982 62.1492 14.7264C62.1492 13.7546 62.5352 12.8226 63.2224 12.1355C63.9095 11.4483 64.8415 11.0623 65.8133 11.0623C66.7851 11.0623 67.7171 11.4483 68.4042 12.1355C69.0914 12.8226 69.4774 13.7546 69.4774 14.7264" fill="#335658" fill-opacity="0.7"/>
<path d="M82.5472 8.56511V5.51948C82.9723 5.35032 83.3383 5.05992 83.5998 4.6844C83.8612 4.30888 84.0064 3.86479 84.0175 3.40737V3.33736C83.9961 2.70283 83.7258 2.10222 83.2651 1.66546C82.8043 1.2287 82.1901 0.990915 81.5553 1.00354H81.4736C80.8397 0.993932 80.2272 1.23273 79.7671 1.66886C79.307 2.105 79.0358 2.70385 79.0114 3.33736V3.41904C79.0186 3.87117 79.157 4.31147 79.4097 4.68643C79.6625 5.06139 80.0187 5.35486 80.4351 5.53115V8.56511C79.1934 8.7281 78.0153 9.2106 77.016 9.9654L68.2409 3.44238C68.3108 3.23162 68.3462 3.01096 68.3459 2.78891C68.3459 2.04925 68.0521 1.33988 67.529 0.816854C67.006 0.293831 66.2966 0 65.557 0C64.8173 0 64.1079 0.293831 63.5849 0.816854C63.0619 1.33988 62.7681 2.04925 62.7681 2.78891C62.7771 3.146 62.8565 3.4978 63.0016 3.82421C63.1467 4.15061 63.3547 4.44523 63.6137 4.69123C63.8727 4.93722 64.1776 5.12977 64.511 5.25787C64.8445 5.38597 65.1999 5.44711 65.557 5.4378C66.0382 5.43933 66.5119 5.31889 66.9339 5.08772L75.6041 11.5057C74.8234 12.6102 74.4129 13.9337 74.4318 15.2861C74.4507 16.6385 74.8979 17.9501 75.7091 19.0323L73.0719 21.5411C72.8598 21.4769 72.64 21.4416 72.4184 21.4361C71.9733 21.434 71.5368 21.5592 71.1606 21.797C70.7843 22.0347 70.4838 22.3751 70.2946 22.7781C70.1348 23.1726 70.0971 23.606 70.1866 24.0221C70.2761 24.4383 70.4885 24.818 70.7964 25.1119C71.1231 25.4226 71.5328 25.632 71.9759 25.7148C72.4191 25.7976 72.8767 25.7504 73.2936 25.5786C73.6951 25.4221 74.0412 25.1501 74.2883 24.7971C74.5354 24.444 74.6725 24.0257 74.6822 23.5949C74.6815 23.3806 74.646 23.1678 74.5772 22.9648L77.1794 20.4909C78.3368 21.3173 79.7092 21.7903 81.13 21.8524C82.5508 21.9145 83.9592 21.5632 85.1844 20.841C86.3787 20.1531 87.3258 19.1064 87.8914 17.8495C88.457 16.5927 88.6122 15.1896 88.335 13.8395C88.0124 12.4734 87.2812 11.238 86.2389 10.2979C85.1966 9.35767 83.8925 8.75734 82.5005 8.57678L82.5472 8.56511ZM81.4269 18.6122C80.9633 18.6277 80.5012 18.551 80.0676 18.3864C79.6339 18.2218 79.2372 17.9727 78.9006 17.6535C78.564 17.3343 78.2943 16.9514 78.107 16.527C77.9196 16.1026 77.8185 15.6453 77.8095 15.1815C77.862 14.2591 78.2653 13.3918 78.9369 12.7574C79.6084 12.1229 80.4973 11.7694 81.4211 11.7694C82.345 11.7694 83.2338 12.1229 83.9053 12.7574C84.5769 13.3918 84.9802 14.2591 85.0327 15.1815C85.0237 15.6443 84.9229 16.1006 84.7363 16.5242C84.5498 16.9478 84.281 17.3302 83.9457 17.6492C83.6104 17.9683 83.2151 18.2177 82.7828 18.383C82.3504 18.5483 81.8896 18.6262 81.4269 18.6122" fill="#335658" fill-opacity="0.7"/>
</svg>
