<svg width="86" height="40" viewBox="0 0 86 40" fill="none" xmlns="http://www.w3.org/2000/svg">
<path d="M52.1598 38.13L52.2698 38.87C52.0767 38.9186 51.8788 38.9454 51.6798 38.95C51.4516 38.9578 51.2251 38.9098 51.0198 38.81C50.8636 38.72 50.7435 38.5786 50.6798 38.41C50.6009 38.0829 50.5706 37.7459 50.5898 37.41V34.55H50.0098V33.9H50.5898V32.66L51.3698 32.15V33.9H52.1598V34.55H51.3698V37.47C51.3531 37.6464 51.377 37.8243 51.4398 37.99C51.4822 38.0497 51.5398 38.0969 51.6066 38.1268C51.6734 38.1567 51.747 38.1682 51.8198 38.16H52.1598V38.13ZM53.9298 38.88V32H54.7098V34.47C54.88 34.256 55.095 34.0819 55.3398 33.96C55.5781 33.8385 55.8423 33.7767 56.1098 33.78C56.323 33.7673 56.5367 33.7979 56.7378 33.8701C56.9389 33.9423 57.1233 34.0545 57.2798 34.2C57.6174 34.6304 57.7719 35.1765 57.7098 35.72V38.88H56.9298V35.72C56.9579 35.3888 56.8656 35.0586 56.6698 34.79C56.5743 34.6979 56.4615 34.6257 56.3379 34.5777C56.2143 34.5296 56.0823 34.5066 55.9498 34.51C55.7862 34.5063 55.6237 34.5364 55.4722 34.5983C55.3208 34.6602 55.1838 34.7527 55.0698 34.87C54.7908 35.2351 54.662 35.693 54.7098 36.15V38.88H53.9298ZM63.1198 37.28L63.9298 37.38C63.8391 37.851 63.5822 38.2737 63.2059 38.571C62.8296 38.8684 62.3589 39.0206 61.8798 39C61.5823 39.0153 61.2852 38.964 61.0101 38.8498C60.735 38.7356 60.4889 38.5615 60.2898 38.34C59.8461 37.8062 59.6242 37.1226 59.6698 36.43C59.6142 35.7087 59.8359 34.9934 60.2898 34.43C60.4838 34.2089 60.7242 34.0333 60.9938 33.9158C61.2635 33.7983 61.5557 33.7417 61.8498 33.75C62.133 33.7491 62.4131 33.8084 62.6717 33.9239C62.9303 34.0394 63.1614 34.2085 63.3498 34.42C63.8155 34.9631 64.0521 35.6658 64.0098 36.38V36.61H60.4898C60.4792 37.0694 60.6356 37.517 60.9298 37.87C61.0523 38.0136 61.2062 38.1271 61.3796 38.2016C61.553 38.2762 61.7413 38.3099 61.9298 38.3C62.2178 38.2975 62.4964 38.1972 62.7199 38.0155C62.9434 37.8338 63.0985 37.5815 63.1598 37.3L63.1198 37.28ZM60.5298 35.91H63.1198C63.1196 35.553 63.0116 35.2044 62.8098 34.91C62.693 34.7578 62.5409 34.6364 62.3667 34.5563C62.1924 34.4761 62.0013 34.4396 61.8098 34.45C61.6407 34.448 61.4732 34.4816 61.3181 34.5488C61.163 34.6161 61.0239 34.7153 60.9098 34.84C60.6532 35.1363 60.5175 35.5183 60.5298 35.91ZM65.9598 38.91V33.91H66.6698V34.61C66.8109 34.3587 67.0185 34.1511 67.2698 34.01C67.51 33.8619 67.7876 33.7856 68.0698 33.79C68.3633 33.7808 68.6528 33.861 68.8998 34.02C69.1333 34.1736 69.3064 34.4032 69.3898 34.67C69.542 34.4019 69.7542 34.1726 70.0098 34C70.2521 33.8567 70.5283 33.7808 70.8098 33.78C71.1829 33.7758 71.5425 33.9196 71.8098 34.18C72.0977 34.5412 72.234 35.0002 72.1898 35.46V38.88H71.4098V35.74C71.4236 35.4834 71.3931 35.2263 71.3198 34.98C71.2674 34.8383 71.1687 34.7185 71.0398 34.64C70.9072 34.5597 70.7548 34.5181 70.5998 34.52C70.4437 34.5093 70.2873 34.5355 70.1431 34.5963C69.999 34.657 69.8711 34.7508 69.7698 34.87C69.5501 35.2032 69.4578 35.6043 69.5098 36V38.89H68.7198V35.64C68.7503 35.3332 68.6724 35.0254 68.4998 34.77C68.4274 34.6856 68.3365 34.6191 68.2341 34.5757C68.1317 34.5324 68.0207 34.5133 67.9098 34.52C67.7479 34.5097 67.5859 34.5388 67.4378 34.605C67.2898 34.6712 67.16 34.7725 67.0598 34.9C66.8079 35.3209 66.6991 35.8121 66.7498 36.3V38.88L65.9598 38.91ZM77.6198 37.31L78.4298 37.41C78.3351 37.8862 78.0769 38.3142 77.6998 38.62C77.3179 38.9003 76.8532 39.0446 76.3798 39.03C76.0828 39.0412 75.787 38.988 75.5125 38.8741C75.2381 38.7601 74.9915 38.5882 74.7898 38.37C74.3497 37.8347 74.1314 37.1512 74.1798 36.46C74.1213 35.74 74.3395 35.0248 74.7898 34.46C74.9838 34.2389 75.2242 34.0633 75.4938 33.9458C75.7635 33.8283 76.0557 33.7717 76.3498 33.78C76.6347 33.7777 76.9168 33.8363 77.1772 33.9518C77.4376 34.0674 77.6703 34.2372 77.8598 34.45C78.2922 34.9967 78.5061 35.6845 78.4598 36.38V36.61H75.0098C75.0078 37.068 75.1632 37.5128 75.4498 37.87C75.5723 38.0136 75.7262 38.1271 75.8996 38.2016C76.073 38.2762 76.2613 38.3099 76.4498 38.3C76.7378 38.2975 77.0164 38.1972 77.2399 38.0155C77.4634 37.8338 77.6185 37.5815 77.6798 37.3L77.6198 37.31ZM75.0098 35.91H77.6098C77.6067 35.552 77.4951 35.2033 77.2898 34.91C77.1736 34.7572 77.0216 34.6353 76.8472 34.5551C76.6728 34.4748 76.4814 34.4388 76.2898 34.45C76.1192 34.4472 75.9499 34.4805 75.7931 34.5477C75.6362 34.6149 75.4954 34.7145 75.3798 34.84C75.131 35.1401 74.9995 35.5203 75.0098 35.91ZM80.1298 37.39L80.9098 37.26C80.95 37.4709 81.0422 37.6684 81.178 37.8346C81.3138 38.0008 81.489 38.1305 81.6876 38.2119C81.8862 38.2934 82.102 38.324 82.3154 38.3009C82.5288 38.2779 82.7331 38.2019 82.9098 38.08C82.9987 38.0144 83.0705 37.9283 83.1192 37.8291C83.168 37.7299 83.1922 37.6205 83.1898 37.51C83.1935 37.419 83.1734 37.3287 83.1312 37.2479C83.0891 37.1672 83.0265 37.0989 82.9498 37.05C82.6994 36.9235 82.4339 36.8294 82.1598 36.77C81.7372 36.67 81.3253 36.5293 80.9298 36.35C80.7287 36.2388 80.5618 36.0748 80.4473 35.8756C80.3327 35.6764 80.2748 35.4497 80.2798 35.22C80.2786 35.0298 80.3192 34.8417 80.3987 34.6689C80.4782 34.4961 80.5946 34.3429 80.7398 34.22C81.1104 33.9411 81.5664 33.7997 82.0298 33.82C82.3413 33.8166 82.6505 33.8743 82.9398 33.99C83.1742 34.0828 83.3808 34.2343 83.5398 34.43C83.6933 34.668 83.7892 34.9385 83.8198 35.22L83.0598 35.34C83.0527 35.2187 83.0205 35.1002 82.9653 34.992C82.9102 34.8838 82.8332 34.7881 82.7393 34.7111C82.6453 34.6341 82.5365 34.5773 82.4195 34.5444C82.3026 34.5115 82.1801 34.5032 82.0598 34.52C81.7939 34.5 81.5284 34.5629 81.2998 34.7C81.2218 34.7485 81.1578 34.8163 81.114 34.897C81.0702 34.9776 81.048 35.0682 81.0498 35.16C81.0475 35.248 81.0685 35.335 81.1107 35.4122C81.1528 35.4895 81.2146 35.5543 81.2898 35.6C81.563 35.7266 81.8476 35.8271 82.1398 35.9C82.5737 36.003 82.996 36.1505 83.3998 36.34C83.5865 36.4436 83.742 36.5956 83.8498 36.78C83.9611 36.9818 84.0163 37.2097 84.0098 37.44C84.0166 37.6591 83.9744 37.8771 83.8862 38.0778C83.7979 38.2785 83.6659 38.4569 83.4998 38.6C83.0969 38.9094 82.5971 39.0653 82.0898 39.04C81.8561 39.0648 81.6199 39.0425 81.395 38.9745C81.17 38.9065 80.961 38.7942 80.7802 38.6442C80.5994 38.4941 80.4505 38.3094 80.3422 38.1008C80.2339 37.8923 80.1685 37.6642 80.1498 37.43L80.1298 37.39Z" fill="#335658" fill-opacity="0.7"/>
<path d="M0.00983371 21.35C-0.0903876 19.2553 0.578198 17.1962 1.88983 15.56C2.43619 14.8729 3.13138 14.3188 3.923 13.9395C4.71462 13.5601 5.58202 13.3654 6.45983 13.37C7.6441 13.3889 8.80006 13.735 9.79983 14.37C10.8422 14.9949 11.7498 15.8209 12.4698 16.8C12.6448 17.0185 12.7401 17.2901 12.7398 17.57V17.64C12.7383 17.836 12.6792 18.0273 12.5698 18.19C12.4237 18.3754 12.235 18.5229 12.0198 18.62C11.8096 18.7333 11.5925 18.8335 11.3698 18.92L10.5698 19.2L9.90983 19.41C5.14983 21 2.71983 21.91 2.59983 22C2.55876 22.0168 2.52405 22.0461 2.5007 22.0839C2.47734 22.1216 2.46654 22.1658 2.46983 22.21C2.48132 22.4426 2.5148 22.6737 2.56983 22.9C2.67489 23.3334 2.82227 23.7554 3.00983 24.16C3.24131 24.6897 3.54047 25.1872 3.89983 25.64C4.31527 26.1386 4.83385 26.5411 5.41983 26.82C6.10719 27.1574 6.86418 27.3287 7.62983 27.32C8.40526 27.325 9.17382 27.1745 9.89007 26.8774C10.6063 26.5802 11.2557 26.1425 11.7998 25.59C11.9907 25.3362 12.2684 25.1618 12.5798 25.1C12.9698 25.1 13.1598 25.27 13.1598 25.62C13.1278 25.8295 13.0338 26.0245 12.8898 26.18C12.1675 27.1452 11.2336 27.932 10.1598 28.48C9.0968 29.0416 7.91209 29.3335 6.70983 29.33C5.93495 29.3279 5.16651 29.1891 4.43983 28.92C3.66366 28.6102 2.94397 28.1743 2.30983 27.63C1.55002 26.9519 0.975313 26.0916 0.639834 25.13C0.197503 23.9199 -0.0161226 22.6381 0.00983371 21.35ZM9.35983 17.68C9.35983 17.37 8.95983 16.91 8.16983 16.27C7.47275 15.6715 6.58844 15.3355 5.66983 15.32C5.18081 15.3132 4.69849 15.4342 4.27056 15.671C3.84262 15.9077 3.48389 16.2521 3.22983 16.67C2.57258 17.7917 2.2596 19.0818 2.32983 20.38C2.32983 20.57 2.38983 20.66 2.49983 20.66C2.60983 20.66 3.62983 20.24 5.75983 19.39L9.00983 18.09C9.10252 18.0646 9.18542 18.0119 9.24783 17.9388C9.31023 17.8657 9.34925 17.7755 9.35983 17.68ZM20.0798 28.19C20.0798 28.65 19.9398 28.88 19.6698 28.88H19.4498L18.9498 28.83L18.2698 28.76H17.3798H16.3798H15.4298H14.5798C14.3558 28.7644 14.1321 28.7811 13.9098 28.81H13.4498H13.2398C12.8998 28.81 12.7298 28.6 12.7298 28.18V28.08C12.7298 27.78 12.8098 27.59 12.9498 27.51C13.3425 27.3722 13.7539 27.2946 14.1698 27.28C14.3251 27.28 14.4782 27.2439 14.617 27.1744C14.7559 27.105 14.8767 27.0042 14.9698 26.88C15.1184 26.5686 15.1838 26.2241 15.1598 25.88V7.89C15.1653 7.82678 15.1653 7.76322 15.1598 7.7C15.1492 7.64497 15.1324 7.5913 15.1098 7.54C15.0668 7.50919 15.0324 7.46788 15.0098 7.42C14.9859 7.37491 14.947 7.33956 14.8998 7.32L14.7698 7.23L14.5598 7.11L14.3798 7L13.6498 6.57L13.0998 6.24L12.7798 6C12.6905 5.94902 12.6149 5.87692 12.5598 5.79C12.5195 5.73499 12.4984 5.66821 12.4998 5.6C12.4998 5.48 12.9398 5.19 13.7998 4.73C14.8732 4.19667 15.8732 3.67667 16.7998 3.17C16.9295 3.06962 17.0862 3.01041 17.2498 3C17.5698 3 17.7298 3.22 17.7298 3.66V26.14C17.7298 26.28 17.7298 26.4 17.7298 26.49C17.7407 26.5777 17.7574 26.6645 17.7798 26.75L17.8498 26.94C17.8498 26.94 17.9298 27.03 18.0098 27.08L18.1798 27.18L18.4098 27.27L18.6898 27.34L19.0598 27.39C19.2045 27.4043 19.3481 27.4277 19.4898 27.46C19.5763 27.4686 19.6602 27.4946 19.7365 27.5362C19.8128 27.5778 19.88 27.6344 19.9341 27.7024C19.9882 27.7705 20.0281 27.8487 20.0514 27.9325C20.0747 28.0162 20.081 28.1038 20.0698 28.19H20.0798ZM19.0098 21.35C18.9096 19.2553 19.5782 17.1962 20.8898 15.56C21.4362 14.8729 22.1314 14.3188 22.923 13.9395C23.7146 13.5601 24.582 13.3654 25.4598 13.37C26.6443 13.3873 27.8007 13.7335 28.7998 14.37C29.8422 14.9949 30.7498 15.8209 31.4698 16.8C31.6448 17.0185 31.7401 17.2901 31.7398 17.57V17.64C31.7383 17.836 31.6792 18.0273 31.5698 18.19C31.4237 18.3754 31.235 18.5229 31.0198 18.62C30.8096 18.7333 30.5925 18.8335 30.3698 18.92L29.5698 19.2L28.9098 19.41C24.1498 21 21.7198 21.91 21.5998 22C21.5588 22.0168 21.5241 22.0461 21.5007 22.0839C21.4773 22.1216 21.4665 22.1658 21.4698 22.21C21.4813 22.4426 21.5148 22.6737 21.5698 22.9C21.6749 23.3334 21.8223 23.7554 22.0098 24.16C22.2451 24.6878 22.544 25.1848 22.8998 25.64C23.3153 26.1386 23.8338 26.5411 24.4198 26.82C25.1072 27.1574 25.8642 27.3287 26.6298 27.32C27.4053 27.325 28.1738 27.1745 28.8901 26.8774C29.6063 26.5802 30.2557 26.1425 30.7998 25.59C30.9907 25.3362 31.2684 25.1618 31.5798 25.1C31.9698 25.1 32.1598 25.27 32.1598 25.62C32.1278 25.8295 32.0338 26.0245 31.8898 26.18C31.1675 27.1452 30.2336 27.932 29.1598 28.48C28.0968 29.0416 26.9121 29.3335 25.7098 29.33C24.9349 29.3279 24.1665 29.1891 23.4398 28.92C22.6566 28.6122 21.93 28.1762 21.2898 27.63C20.53 26.9519 19.9553 26.0916 19.6198 25.13C19.1843 23.9186 18.9775 22.6369 19.0098 21.35ZM28.6498 17.68C28.6498 17.37 28.2498 16.91 27.4598 16.27C26.7628 15.6715 25.8784 15.3355 24.9598 15.32C24.4708 15.3132 23.9885 15.4342 23.5606 15.671C23.1326 15.9077 22.7739 16.2521 22.5198 16.67C21.8626 17.7917 21.5496 19.0818 21.6198 20.38C21.6198 20.57 21.6798 20.66 21.7898 20.66C21.8998 20.66 22.9198 20.24 25.0498 19.39L28.3398 18.09C28.4251 18.0581 28.4995 18.0026 28.5543 17.93C28.6092 17.8574 28.6423 17.7707 28.6498 17.68ZM32.4898 18.82C32.4819 18.0956 32.6214 17.3772 32.8999 16.7084C33.1784 16.0397 33.5901 15.4346 34.1098 14.93C34.6307 14.4005 35.254 13.9829 35.9418 13.7026C36.6296 13.4224 37.3673 13.2854 38.1098 13.3C39.0943 13.3009 40.0667 13.5159 40.9598 13.93C41.46 14.1835 41.9821 14.391 42.5198 14.55C42.8961 14.5387 43.263 14.4306 43.5853 14.2362C43.9076 14.0418 44.1744 13.7675 44.3598 13.44C44.6998 12.89 45.0298 12.61 45.3598 12.61C45.5348 12.6191 45.7057 12.6658 45.861 12.7469C46.0164 12.828 46.1524 12.9416 46.2598 13.08C46.5294 13.3436 46.6839 13.703 46.6898 14.08C46.6873 14.2867 46.6383 14.4901 46.5466 14.6753C46.4548 14.8605 46.3227 15.0227 46.1598 15.15C45.7908 15.4617 45.3759 15.7147 44.9298 15.9C44.4698 16.1 44.2198 16.21 44.1998 16.23C44.1084 16.2972 44.0473 16.3979 44.0298 16.51C44.0482 16.6272 44.0818 16.7415 44.1298 16.85C44.2182 17.1039 44.2851 17.3649 44.3298 17.63C44.4041 17.9919 44.441 18.3605 44.4398 18.73C44.451 19.5087 44.3073 20.2818 44.0172 21.0045C43.7271 21.7273 43.2963 22.3851 42.7498 22.94C42.0644 23.6532 41.2052 24.1757 40.2567 24.4563C39.3081 24.7368 38.3029 24.7656 37.3398 24.54C37.0951 24.4644 36.8441 24.4108 36.5898 24.38C36.3906 24.4088 36.1992 24.4778 36.0274 24.5826C35.8555 24.6875 35.7067 24.826 35.5898 24.99C35.2657 25.3081 35.0729 25.7364 35.0498 26.19C35.0498 26.81 35.5398 27.19 36.5298 27.43C37.7798 27.6675 39.0477 27.798 40.3198 27.82C41.4282 27.807 42.5337 27.9347 43.6098 28.2C44.56 28.4235 45.4062 28.9629 46.0098 29.73C46.525 30.4169 46.8055 31.2514 46.8098 32.11C46.803 32.6573 46.6874 33.1978 46.4698 33.7C46.2049 34.2902 45.8279 34.8234 45.3598 35.27C44.6851 35.8627 43.8799 36.2876 43.0098 36.51C41.8597 36.8595 40.6616 37.0248 39.4598 37C36.9332 37 35.1632 36.53 34.1498 35.59C33.6921 35.2164 33.3196 34.7491 33.0574 34.2196C32.7952 33.6901 32.6494 33.1106 32.6298 32.52C32.6328 32.295 32.6562 32.0707 32.6998 31.85C32.7405 31.6491 32.7973 31.4518 32.8698 31.26C32.9333 31.0924 33.0068 30.9288 33.0898 30.77C33.248 30.4977 33.4432 30.2486 33.6698 30.03L33.9598 29.78C34.045 29.7235 34.1253 29.6599 34.1998 29.59L34.3698 29.47H34.4398C34.4633 29.4465 34.4817 29.4183 34.4937 29.3874C34.5058 29.3564 34.5113 29.3232 34.5098 29.29C34.4149 29.1954 34.3072 29.1146 34.1898 29.05C33.9274 28.8679 33.706 28.6328 33.5398 28.36C33.3133 28.009 33.1982 27.5976 33.2098 27.18C33.2698 26.5139 33.4812 25.8704 33.8278 25.2985C34.1744 24.7266 34.6471 24.2414 35.2098 23.88C35.2173 23.8626 35.2211 23.8439 35.2211 23.825C35.2211 23.8061 35.2173 23.7874 35.2098 23.77C35.2098 23.68 35.0998 23.58 34.8998 23.46C34.5977 23.2622 34.3163 23.0343 34.0598 22.78C33.6634 22.3991 33.3263 21.9609 33.0598 21.48C32.6244 20.6832 32.4006 19.788 32.4098 18.88L32.4898 18.82ZM38.2298 14.48C37.7983 14.4695 37.3707 14.5641 36.9839 14.7558C36.5972 14.9474 36.2629 15.2303 36.0098 15.58C35.4146 16.3963 35.1149 17.3908 35.1598 18.4C35.121 19.6548 35.4702 20.891 36.1598 21.94C36.4283 22.3911 36.8087 22.7653 37.2642 23.0263C37.7197 23.2874 38.2349 23.4264 38.7598 23.43C39.1977 23.4406 39.6316 23.3441 40.0237 23.1489C40.4158 22.9537 40.7543 22.6658 41.0098 22.31C41.5972 21.4974 41.8963 20.512 41.8598 19.51C41.8898 18.2688 41.541 17.048 40.8598 16.01C40.5907 15.5497 40.2071 15.167 39.7462 14.8989C39.2854 14.6308 38.763 14.4865 38.2298 14.48ZM34.6098 31.8C34.622 32.3297 34.7796 32.8458 35.0653 33.292C35.351 33.7382 35.7538 34.0973 36.2298 34.33C37.4728 35.0302 38.884 35.3761 40.3098 35.33C41.5066 35.4354 42.7063 35.1626 43.7398 34.55C44.037 34.3528 44.2827 34.0875 44.4567 33.7761C44.6306 33.4648 44.7277 33.1164 44.7398 32.76C44.7545 32.3078 44.6287 31.8622 44.3798 31.4843C44.1309 31.1065 43.7711 30.815 43.3498 30.65C42.8266 30.3766 42.2568 30.2037 41.6698 30.14C41.0098 30 40.1398 30 39.0098 29.94C37.8798 29.88 36.8598 29.84 36.0098 29.75H35.9098C35.7498 29.75 35.5498 29.88 35.2998 30.13C35.0853 30.3507 34.9172 30.6122 34.8055 30.8991C34.6938 31.186 34.6409 31.4923 34.6498 31.8H34.6098ZM46.1498 16.43C46.1498 15.7633 46.6998 15.0633 47.7998 14.33C48.9063 13.6216 50.1961 13.2531 51.5098 13.27C51.9566 13.2736 52.4021 13.3205 52.8398 13.41C53.3697 13.5239 53.8884 13.6846 54.3898 13.89C54.9861 14.1385 55.497 14.5555 55.8598 15.09C56.2749 15.7069 56.5261 16.4192 56.5898 17.16C56.6398 17.71 56.6598 18.16 56.6598 18.44V25.44C56.6437 25.7893 56.7269 26.136 56.8998 26.44C57.0046 26.6446 57.1731 26.8095 57.3798 26.91C57.5296 26.9686 57.689 26.9991 57.8498 27C57.9888 27.0049 58.1273 26.9808 58.2565 26.9291C58.3856 26.8774 58.5026 26.7994 58.5998 26.7C58.7741 26.5278 58.9193 26.3286 59.0298 26.11C59.1298 25.92 59.2498 25.82 59.3898 25.82C59.5298 25.82 59.6998 25.97 59.6998 26.27C59.6528 26.9417 59.3897 27.5802 58.9498 28.09C58.7311 28.4032 58.439 28.6581 58.0991 28.8324C57.7592 29.0067 57.3818 29.0951 56.9998 29.09C56.7108 29.0898 56.4237 29.0425 56.1498 28.95C55.8998 28.8732 55.6659 28.7512 55.4598 28.59C55.2798 28.44 55.1198 28.29 54.9698 28.15C54.8392 28.0339 54.7187 27.9067 54.6098 27.77L54.5098 27.63C54.4989 27.6247 54.487 27.6219 54.4748 27.6219C54.4627 27.6219 54.4507 27.6247 54.4398 27.63C54.4178 27.629 54.396 27.6353 54.3779 27.648C54.3598 27.6606 54.3464 27.6789 54.3398 27.7C54.2725 27.8005 54.1917 27.8913 54.0998 27.97C53.9211 28.1409 53.727 28.2949 53.5198 28.43C52.5584 29.0679 51.4335 29.4151 50.2798 29.43C49.7444 29.4517 49.2104 29.3606 48.7125 29.1625C48.2146 28.9643 47.7639 28.6637 47.3898 28.28C47.0263 27.9097 46.7407 27.4701 46.5501 26.9875C46.3594 26.5048 46.2675 25.9888 46.2798 25.47C46.2501 24.8592 46.3682 24.2503 46.6241 23.695C46.8801 23.1396 47.2662 22.6542 47.7498 22.28C48.1536 21.9656 48.6018 21.7128 49.0798 21.53C49.6058 21.3207 50.1475 21.1536 50.6998 21.03L52.2198 20.74C52.6998 20.66 53.0998 20.6 53.4198 20.58H53.8898C54.0798 20.58 54.1698 20.37 54.1698 20.09V18.72C54.2312 17.7041 53.9417 16.6979 53.3498 15.87C53.0965 15.5743 52.782 15.3371 52.4281 15.1748C52.0742 15.0125 51.6892 14.929 51.2998 14.93C50.0698 14.93 49.0698 15.72 48.2998 17.29C48.2185 17.4158 48.1076 17.5198 47.9769 17.593C47.8462 17.6662 47.6996 17.7063 47.5498 17.71C47.1855 17.7162 46.8308 17.592 46.5498 17.36C46.4124 17.2483 46.3029 17.106 46.23 16.9446C46.1571 16.7832 46.1228 16.607 46.1298 16.43H46.1498ZM51.1498 27.43C51.6628 27.4329 52.1695 27.3165 52.6298 27.09C52.9965 26.9382 53.3346 26.7252 53.6298 26.46C53.764 26.3131 53.8909 26.1595 54.0098 26C54.1559 25.7597 54.2256 25.4808 54.2098 25.2V22.84C54.2353 22.5572 54.2353 22.2728 54.2098 21.99C54.1933 21.9282 54.1546 21.8747 54.1011 21.8396C54.0476 21.8046 53.9831 21.7905 53.9198 21.8C53.2023 21.8219 52.4887 21.9157 51.7898 22.08C51.0427 22.2196 50.3498 22.566 49.7898 23.08C49.5004 23.3082 49.2676 23.6002 49.1097 23.9333C48.9519 24.2664 48.8732 24.6315 48.8798 25C48.8397 25.3662 48.8837 25.7367 49.0085 26.0833C49.1333 26.4299 49.3355 26.7434 49.5998 27C50.0231 27.3378 50.5605 27.499 51.0998 27.45L51.1498 27.43ZM64.0098 15.28C64.0098 15.37 64.0098 15.42 64.1198 15.42C64.2164 15.3633 64.3041 15.2925 64.3798 15.21C64.5782 15.023 64.7887 14.8493 65.0098 14.69C65.3288 14.461 65.6629 14.2539 66.0098 14.07C66.4305 13.8385 66.8769 13.6573 67.3398 13.53C67.8829 13.3751 68.4451 13.2977 69.0098 13.3C69.4893 13.3035 69.9664 13.3673 70.4298 13.49C70.9605 13.6509 71.4656 13.8866 71.9298 14.19C72.5148 14.5845 72.9814 15.1307 73.2798 15.77C73.6891 16.5919 73.9369 17.4847 74.0098 18.4C74.0098 18.8 74.0798 19.4 74.0798 20.21V20.88C74.0798 21.24 74.0798 21.88 74.0798 22.81C74.0798 23.74 74.0798 24.91 74.0798 26.35V26.42C74.0651 26.5295 74.0651 26.6405 74.0798 26.75C74.0798 26.85 74.0798 26.93 74.0798 26.99C74.0876 27.0249 74.1022 27.0578 74.1228 27.087C74.1434 27.1162 74.1696 27.141 74.1998 27.16L74.3498 27.29C74.4256 27.328 74.5064 27.3549 74.5898 27.37C74.6768 27.4002 74.7678 27.4171 74.8598 27.42H75.2398C75.3811 27.435 75.5214 27.4583 75.6598 27.49C76.0098 27.49 76.1798 27.75 76.1798 28.15C76.1798 28.55 75.9898 28.84 75.6298 28.84L75.1498 28.79C74.8998 28.79 74.5598 28.72 74.1498 28.69C73.7398 28.66 73.2398 28.63 72.7398 28.63H71.8498H71.0798L70.4798 28.7L70.0398 28.77H69.8698C69.5498 28.77 69.3898 28.54 69.3898 28.08C69.3898 27.82 69.4598 27.66 69.5998 27.59C69.9525 27.4675 70.3183 27.387 70.6898 27.35C70.858 27.3078 71.0282 27.2745 71.1998 27.25C71.3745 27.2268 71.5364 27.1458 71.6598 27.02C71.7593 26.833 71.8011 26.6207 71.7798 26.41V21C71.8404 19.6987 71.6781 18.3966 71.2998 17.15C71.0232 16.4223 70.4746 15.8307 69.7698 15.5C69.1472 15.1942 68.4635 15.0335 67.7698 15.03C66.9017 15.0256 66.0583 15.3185 65.3798 15.86C64.8367 16.2063 64.4195 16.7182 64.1898 17.32C64.1455 17.4762 64.122 17.6376 64.1198 17.8V26.3C64.1198 26.91 64.3798 27.24 64.8998 27.3C65.4752 27.3452 66.041 27.4732 66.5798 27.68C66.653 27.7586 66.7086 27.8519 66.7431 27.9536C66.7775 28.0553 66.7901 28.1631 66.7798 28.27C66.7798 28.69 66.6298 28.9 66.3398 28.9H66.1198H65.6198L65.0098 28.76C64.7598 28.76 64.4698 28.7 64.1398 28.69H63.1398H62.1398H61.2998L60.6698 28.76L60.2298 28.81H60.0198C59.6398 28.81 59.4398 28.6 59.4398 28.19C59.4398 27.78 59.5198 27.66 59.6698 27.58C60.0366 27.4431 60.42 27.3557 60.8098 27.32C60.9583 27.3178 61.1045 27.2826 61.2377 27.2169C61.3709 27.1511 61.4878 27.0565 61.5798 26.94C61.6945 26.679 61.7459 26.3946 61.7298 26.11V17.71C61.7569 17.4162 61.6978 17.1208 61.5598 16.86C61.1271 16.4341 60.6587 16.046 60.1598 15.7C60.0513 15.6128 59.9798 15.4878 59.9598 15.35C59.9598 15.23 60.0398 15.12 60.1998 15.02C60.3498 14.91 60.8398 14.64 61.6598 14.2L63.2698 13.33C63.3679 13.2542 63.4862 13.2089 63.6098 13.2C63.8798 13.2 64.0198 13.37 64.0198 13.72V15.1C64.0285 15.1463 64.0285 15.1937 64.0198 15.24L64.0098 15.28ZM75.0898 15.7C74.6198 15.7 74.3798 15.55 74.3798 15.25C74.3798 15.11 74.5398 14.89 74.8698 14.61C75.1998 14.33 75.6698 13.83 76.2898 13.15C76.9384 12.4031 77.5143 11.5961 78.0098 10.74C78.2598 10.3 78.4898 10.08 78.6898 10.08C78.8898 10.08 79.1698 10.27 79.1698 10.67C79.1698 10.83 79.1698 11.25 79.1698 11.92C79.1698 12.59 79.1698 13 79.1698 13.17C79.1565 13.2637 79.1651 13.3593 79.1951 13.4491C79.225 13.5389 79.2755 13.6205 79.3424 13.6874C79.4093 13.7544 79.4909 13.8048 79.5807 13.8348C79.6706 13.8647 79.7661 13.8734 79.8598 13.86H83.0098C83.0662 13.8518 83.1235 13.8518 83.1798 13.86H83.3098C83.9098 13.86 84.1998 14.08 84.1998 14.52C84.214 14.879 84.1045 15.232 83.8898 15.52C83.8056 15.5896 83.7081 15.6414 83.6032 15.6724C83.4984 15.7033 83.3884 15.7127 83.2798 15.7H79.1798C79.1336 15.6933 79.0865 15.6975 79.0422 15.7122C78.9979 15.7269 78.9576 15.7517 78.9246 15.7848C78.8916 15.8178 78.8667 15.858 78.852 15.9023C78.8373 15.9467 78.8331 15.9938 78.8398 16.04C78.8398 17.96 78.8398 19.56 78.8398 20.83C78.8398 22.1 78.8398 22.96 78.8398 23.4C78.8398 23.84 78.8398 24.15 78.8398 24.34C78.8398 26.09 79.4498 26.97 80.6498 26.97C81.1945 26.9463 81.7199 26.7619 82.1598 26.44C82.6422 26.1095 83.1031 25.7488 83.5398 25.36C83.7758 25.0901 84.0906 24.9012 84.4398 24.82C84.5273 24.8187 84.6139 24.8369 84.6935 24.8732C84.773 24.9095 84.8435 24.9631 84.8998 25.03C85.0193 25.1496 85.0874 25.311 85.0898 25.48C85.0626 25.6942 84.9798 25.8976 84.8498 26.07C83.0098 28.2033 81.3832 29.2667 79.9698 29.26C79.5391 29.2556 79.1135 29.1649 78.7185 28.9931C78.3234 28.8214 77.9668 28.5721 77.6698 28.26C76.8605 27.3646 76.4023 26.2067 76.3798 25C76.36 24.6203 76.36 24.2397 76.3798 23.86C76.3798 23.28 76.3798 21.86 76.4498 19.64C76.5198 17.42 76.5198 16.19 76.5198 15.98C76.5198 15.77 76.4398 15.67 76.2798 15.67L75.0898 15.7Z" fill="#335658" fill-opacity="0.7"/>
<path d="M68.2998 11L66.0098 9.16C66.7398 8.31 67.4998 7.5 68.2898 6.72L68.8798 6.12C68.6298 6.12 67.8798 5.91 66.7098 5.6C66.1349 5.46641 65.5675 5.30285 65.0098 5.11L65.9098 2.34C67.1444 2.85287 68.3321 3.47186 69.4598 4.19C69.2388 2.80367 69.1152 1.40359 69.0898 0L71.7898 0C71.7346 1.4134 71.5977 2.82242 71.3798 4.22C71.5798 4.13 72.0198 3.93 72.6898 3.6C73.5998 3.17 74.4398 2.81 75.2098 2.5L76.0098 5.35C74.8898 5.61 73.5898 5.87 72.1098 6.12L73.9298 8.25C74.2998 8.68 74.5798 9.03 74.7998 9.3L72.4698 10.89L70.4698 7.38C69.8098 8.51 69.0998 9.72 68.2998 11Z" fill="#335658" fill-opacity="0.7"/>
</svg>
