<svg width="142" height="27" viewBox="0 0 142 27" fill="none" xmlns="http://www.w3.org/2000/svg">
<path d="M45.3799 20.3302C45.1999 20.3302 45.1999 20.2402 45.1099 20.1402L42.9299 12.5202H42.8399L40.6599 20.1402C40.5699 20.3302 40.5699 20.3302 40.3899 20.3302H37.8499C37.6699 20.3302 37.6699 20.2402 37.5799 20.1402L33.8599 6.89018C33.8599 6.80018 33.8599 6.71018 34.0399 6.71018H37.3999C37.4899 6.71018 37.6699 6.80018 37.6699 6.89018L39.3899 14.8902H39.4799L41.5699 6.89018C41.6599 6.71018 41.6599 6.71018 41.8399 6.71018H43.9299C44.1099 6.71018 44.1099 6.80018 44.1999 6.89018L46.3799 14.8902H46.4699L48.1999 6.89018C48.1999 6.80018 48.2899 6.71018 48.4699 6.71018H51.8299C51.8754 6.71634 51.9177 6.73728 51.9502 6.7698C51.9828 6.80232 52.0037 6.84461 52.0099 6.89018L48.2899 20.1402C48.1999 20.3302 48.1999 20.3302 48.0199 20.3302H45.3799ZM54.5499 20.3302C54.5011 20.3252 54.4553 20.3041 54.4199 20.2702C54.3889 20.2338 54.3713 20.1879 54.3699 20.1402V6.89018C54.376 6.84461 54.397 6.80232 54.4295 6.7698C54.462 6.73728 54.5043 6.71634 54.5499 6.71018H59.9999C63.3599 6.71018 65.0799 8.62018 65.0799 11.2502C65.0799 13.8802 63.3599 15.7902 59.9999 15.7902H57.9999C57.9774 15.794 57.9566 15.8047 57.9405 15.8208C57.9244 15.837 57.9137 15.8577 57.9099 15.8802V20.0502C57.9085 20.0979 57.8908 20.1438 57.8599 20.1802C57.8244 20.2141 57.7787 20.2352 57.7299 20.2402L54.5499 20.3302ZM61.5499 11.2502C61.5604 11.0272 61.5194 10.8047 61.4299 10.6002C61.3495 10.3917 61.219 10.2062 61.0499 10.0602C60.8884 9.90703 60.6931 9.79399 60.4799 9.73018C60.2672 9.66055 60.0416 9.64004 59.8199 9.67018H57.9999C57.9774 9.674 57.9566 9.68472 57.9405 9.70084C57.9244 9.71697 57.9137 9.7377 57.9099 9.76018V12.5702C57.9137 12.5927 57.9244 12.6134 57.9405 12.6295C57.9566 12.6456 57.9774 12.6564 57.9999 12.6602H59.8199C60.2151 12.7115 60.6152 12.6114 60.9399 12.3802C61.2632 12.1384 61.4787 11.7793 61.5399 11.3802L61.5499 11.2502ZM69.8099 16.9702C69.5105 15.846 69.389 14.6819 69.4499 13.5202C69.4393 12.3603 69.5601 11.2029 69.8099 10.0702C70.123 9.12404 70.7263 8.30066 71.5342 7.71706C72.342 7.13346 73.3133 6.81934 74.3099 6.81934C75.3065 6.81934 76.2777 7.13346 77.0856 7.71706C77.8934 8.30066 78.4968 9.12404 78.8099 10.0702C79.0989 11.1039 79.2105 12.1791 79.1399 13.2502C79.1496 13.2862 79.1496 13.3242 79.1399 13.3602C79.1115 13.4279 79.0576 13.4818 78.9899 13.5102H70.2699C70.2363 13.5234 70.2066 13.5451 70.1839 13.5731C70.1611 13.6012 70.1459 13.6346 70.1399 13.6702C70.1395 14.6465 70.2299 15.6206 70.4099 16.5802C70.6305 17.416 71.1275 18.1526 71.8199 18.6702C72.5283 19.1871 73.3944 19.4417 74.2699 19.3902C75.0209 19.4288 75.7698 19.2811 76.4499 18.9602C77.1125 18.6464 77.6916 18.1804 78.1399 17.6002C78.2299 17.5102 78.3199 17.4202 78.4099 17.5102C78.4323 17.514 78.4531 17.5247 78.4692 17.5408C78.4853 17.557 78.496 17.5777 78.4999 17.6002L78.6799 17.7902C78.7799 17.8802 78.8699 17.9702 78.7799 18.0602C78.2566 18.7398 77.584 19.29 76.8141 19.668C76.0442 20.046 75.1976 20.2418 74.3399 20.2402C73.3263 20.2611 72.3349 19.9414 71.5245 19.3322C70.7141 18.7231 70.1315 17.8597 69.8699 16.8802L69.8099 16.9702ZM78.3399 12.8802C78.4299 12.8802 78.5199 12.8802 78.5199 12.7902C78.5201 12.0255 78.4295 11.2635 78.2499 10.5202C77.9916 9.71253 77.4834 9.00782 76.7986 8.50781C76.1138 8.00779 75.2878 7.73834 74.4399 7.73834C73.5919 7.73834 72.7659 8.00779 72.0811 8.50781C71.3963 9.00782 70.8881 9.71253 70.6299 10.5202C70.3526 11.2426 70.2565 12.022 70.3499 12.7902C70.3499 12.8802 70.3499 12.9702 70.4499 12.9702H78.3399V12.8802ZM91.4099 20.0502H91.2999C91.2321 20.0218 91.1783 19.9679 91.1499 19.9002C91.1449 19.8637 91.1449 19.8267 91.1499 19.7902V12.0702C91.1399 8.98018 89.8699 7.67018 87.4199 7.67018C86.4108 7.63181 85.4269 7.99037 84.6791 8.66896C83.9314 9.34756 83.4793 10.2922 83.4199 11.3002V19.8702C83.4296 19.9062 83.4296 19.9442 83.4199 19.9802C83.3915 20.0479 83.3376 20.1018 83.2699 20.1302H82.7799C82.7121 20.1018 82.6583 20.0479 82.6299 19.9802C82.6249 19.9437 82.6249 19.9067 82.6299 19.8702V7.53018C82.6249 7.49368 82.6249 7.45668 82.6299 7.42018C82.6583 7.35244 82.7121 7.29857 82.7799 7.27018C82.8159 7.26041 82.8538 7.26041 82.8899 7.27018H83.1399C83.1759 7.26041 83.2138 7.26041 83.2499 7.27018C83.3176 7.29857 83.3715 7.35244 83.3999 7.42018C83.4096 7.4562 83.4096 7.49417 83.3999 7.53018V9.34018H83.4999C83.8498 8.58848 84.4194 7.96053 85.1335 7.5392C85.8476 7.11787 86.6727 6.92296 87.4999 6.98018C90.3999 6.98018 92.0399 8.62018 92.0399 11.9802V19.8702C92.0399 20.0502 91.9499 20.1402 91.7599 20.1402L91.4099 20.0502ZM95.8599 23.3202C95.7699 23.1402 95.7699 23.0502 95.9499 22.9602L96.1299 22.7802C96.3099 22.6902 96.3999 22.6902 96.4899 22.8702C96.9004 23.3834 97.4278 23.791 98.0279 24.059C98.6281 24.3269 99.2837 24.4473 99.9399 24.4102C102.39 24.4102 103.94 23.2302 103.94 20.0502V17.8802H103.85C103.542 18.6692 102.984 19.3357 102.262 19.7781C101.54 20.2204 100.693 20.4143 99.8499 20.3302C98.8939 20.3818 97.9499 20.0989 97.1799 19.5302C96.4022 18.9724 95.8407 18.1637 95.5899 17.2402C95.2571 16.0597 95.1021 14.8363 95.1299 13.6102C95.1021 12.3841 95.2571 11.1606 95.5899 9.98018C95.8306 9.05712 96.377 8.24286 97.1399 7.67018C97.9131 7.10871 98.8556 6.82982 99.8099 6.88018C100.653 6.79601 101.5 6.98992 102.222 7.43229C102.944 7.87466 103.502 8.5412 103.81 9.33018H103.9V7.53018C103.89 7.49417 103.89 7.4562 103.9 7.42018C103.928 7.35244 103.982 7.29857 104.05 7.27018C104.086 7.26041 104.124 7.26041 104.16 7.27018H104.43C104.466 7.26041 104.504 7.26041 104.54 7.27018C104.608 7.29857 104.661 7.35244 104.69 7.42018C104.695 7.45668 104.695 7.49368 104.69 7.53018V20.1402C104.69 23.6802 102.79 25.2302 99.8799 25.2302C99.0926 25.28 98.3054 25.1322 97.5899 24.8002C96.8733 24.4688 96.2535 23.9592 95.7899 23.3202H95.8599ZM103.48 16.9702C103.787 15.8782 103.912 14.7429 103.85 13.6102C103.918 12.4773 103.793 11.3411 103.48 10.2502C103.285 9.69647 102.967 9.19443 102.549 8.78226C102.131 8.37009 101.625 8.05863 101.068 7.87158C100.512 7.68453 99.9205 7.62681 99.3385 7.70282C98.7565 7.77882 98.1995 7.98654 97.7099 8.31018C97.0625 8.77094 96.5958 9.44274 96.3899 10.2102C96.1107 11.3091 95.9597 12.4366 95.9399 13.5702C95.9088 14.7071 96.0607 15.8415 96.3899 16.9302C96.6107 17.6886 97.0795 18.351 97.7212 18.8115C98.363 19.272 99.1407 19.5039 99.9299 19.4702C100.722 19.5582 101.52 19.3518 102.17 18.8902C102.827 18.4345 103.291 17.7498 103.47 16.9702H103.48ZM109.14 3.26018H109.03C108.962 3.23179 108.908 3.17792 108.88 3.11018C108.87 3.07417 108.87 3.0362 108.88 3.00018V1.90018C108.875 1.86701 108.875 1.83335 108.88 1.80018L108.94 1.73018C108.965 1.70595 108.996 1.68871 109.03 1.68018H109.77C109.806 1.67041 109.844 1.67041 109.88 1.68018C109.948 1.70857 110.001 1.76244 110.03 1.83018C110.04 1.8662 110.04 1.90417 110.03 1.94018V3.03018C110.04 3.0662 110.04 3.10417 110.03 3.14018C110.001 3.20792 109.948 3.26179 109.88 3.29018H109.77L109.14 3.26018ZM109.32 20.0502H109.21C109.142 20.0218 109.088 19.9679 109.06 19.9002C109.05 19.8642 109.05 19.8262 109.06 19.7902V7.53018C109.05 7.49417 109.05 7.4562 109.06 7.42018C109.088 7.35244 109.142 7.29857 109.21 7.27018C109.246 7.26041 109.284 7.26041 109.32 7.27018H109.59C109.78 7.27018 109.87 7.36018 109.87 7.54018V19.7802C109.87 19.9602 109.78 20.0502 109.59 20.0502H109.32ZM122.94 20.0502C122.75 20.0502 122.66 19.9602 122.66 19.7802V12.0702C122.66 8.98018 121.39 7.71018 118.94 7.71018C117.927 7.66968 116.94 8.02885 116.19 8.71018C115.447 9.39503 114.999 10.3415 114.94 11.3502V19.8702C114.95 19.9062 114.95 19.9442 114.94 19.9802C114.911 20.0479 114.858 20.1018 114.79 20.1302H114.5C114.31 20.1302 114.22 20.0402 114.22 19.8602V7.53018C114.22 7.35018 114.31 7.26018 114.5 7.26018H114.77C114.806 7.25041 114.844 7.25041 114.88 7.26018C114.948 7.28857 115.001 7.34244 115.03 7.41018C115.035 7.44668 115.035 7.48368 115.03 7.52018V9.33018H115.14C115.479 8.59166 116.032 7.97193 116.727 7.55118C117.423 7.13043 118.228 6.92804 119.04 6.97018C121.95 6.97018 123.58 8.61018 123.58 11.9702V19.8702C123.59 19.9062 123.59 19.9442 123.58 19.9802C123.551 20.0479 123.498 20.1018 123.43 20.1302H123.32L122.94 20.0502ZM127.14 16.9702C126.84 15.846 126.719 14.6819 126.78 13.5202C126.769 12.3603 126.89 11.2029 127.14 10.0702C127.453 9.12404 128.056 8.30066 128.864 7.71706C129.672 7.13346 130.643 6.81934 131.64 6.81934C132.636 6.81934 133.608 7.13346 134.416 7.71706C135.223 8.30066 135.827 9.12404 136.14 10.0702C136.439 11.1022 136.561 12.1774 136.5 13.2502C136.51 13.2862 136.51 13.3242 136.5 13.3602C136.471 13.4279 136.418 13.4818 136.35 13.5102H127.62C127.578 13.4964 127.532 13.4964 127.49 13.5102C127.46 13.5482 127.439 13.5928 127.43 13.6402C127.423 14.6172 127.517 15.5924 127.71 16.5502C127.936 17.3963 128.448 18.1381 129.159 18.6502C129.87 19.1622 130.736 19.4131 131.61 19.3602C132.358 19.3935 133.104 19.2454 133.783 18.9285C134.462 18.6116 135.055 18.1353 135.51 17.5402C135.6 17.4502 135.69 17.3602 135.78 17.4502C135.802 17.454 135.823 17.4647 135.839 17.4808C135.855 17.497 135.866 17.5177 135.87 17.5402L136.06 17.7302C136.15 17.8202 136.24 17.9102 136.15 18.0002C136.146 18.0227 136.135 18.0434 136.119 18.0595C136.103 18.0756 136.082 18.0864 136.06 18.0902C135.525 18.7722 134.84 19.3229 134.06 19.7002C133.288 20.078 132.439 20.273 131.58 20.2702C130.556 20.3202 129.547 20.0087 128.73 19.3902C127.911 18.7776 127.329 17.9018 127.08 16.9102L127.14 16.9702ZM135.67 12.8802C135.76 12.8802 135.85 12.8802 135.85 12.7902C135.85 12.0255 135.759 11.2635 135.58 10.5202C135.322 9.71253 134.813 9.00782 134.129 8.50781C133.444 8.00779 132.618 7.73834 131.77 7.73834C130.922 7.73834 130.096 8.00779 129.411 8.50781C128.726 9.00782 128.218 9.71253 127.96 10.5202C127.691 11.2446 127.598 12.0228 127.69 12.7902C127.69 12.8802 127.69 12.9702 127.78 12.9702H135.67V12.8802ZM138.14 8.53018C138.121 8.31688 138.149 8.10206 138.22 7.90018C138.29 7.69584 138.403 7.5085 138.55 7.35018C138.693 7.19641 138.867 7.07386 139.06 6.99018C139.257 6.90458 139.47 6.86042 139.685 6.86042C139.9 6.86042 140.113 6.90458 140.31 6.99018C140.503 7.07386 140.676 7.19641 140.82 7.35018C140.967 7.5085 141.079 7.69584 141.15 7.90018C141.221 8.10206 141.248 8.31688 141.23 8.53018C141.199 8.91848 141.022 9.28076 140.736 9.54493C140.45 9.8091 140.074 9.95578 139.685 9.95578C139.295 9.95578 138.92 9.8091 138.634 9.54493C138.347 9.28076 138.171 8.91848 138.14 8.53018V8.53018ZM141.05 8.53018C141.06 8.349 141.029 8.16786 140.96 8.00018C140.898 7.82728 140.799 7.67017 140.67 7.54018C140.541 7.4072 140.385 7.30353 140.212 7.23624C140.04 7.16894 139.855 7.13959 139.67 7.15018C139.486 7.15642 139.306 7.20068 139.14 7.28018C138.976 7.36045 138.83 7.47264 138.71 7.61018C138.591 7.7467 138.502 7.90689 138.45 8.08018C138.399 8.2553 138.382 8.43864 138.4 8.62018C138.4 8.78764 138.43 8.95372 138.49 9.11018C138.549 9.26775 138.641 9.41084 138.76 9.52985C138.879 9.64886 139.022 9.74103 139.18 9.80018C139.336 9.86078 139.502 9.89131 139.67 9.89018C139.994 9.87113 140.301 9.73834 140.537 9.51519C140.773 9.29204 140.923 8.99282 140.96 8.67018L141.05 8.53018ZM139.23 9.43018L139.05 7.67018C139.05 7.58018 139.05 7.58018 139.14 7.58018H139.78C139.911 7.56904 140.041 7.61004 140.142 7.69428C140.243 7.77851 140.307 7.89921 140.32 8.03018V8.12018C140.326 8.17367 140.321 8.22781 140.305 8.27936C140.29 8.3309 140.264 8.3788 140.23 8.42018C140.199 8.46501 140.159 8.50258 140.113 8.53023C140.066 8.55788 140.014 8.57493 139.96 8.58018L140.32 9.30018C140.41 9.39018 140.32 9.39018 140.23 9.39018H140.02L139.66 8.67018H139.29V9.30018C139.286 9.32266 139.275 9.3434 139.259 9.35952C139.243 9.37564 139.222 9.38636 139.2 9.39018L139.23 9.43018ZM140.14 8.16018C140.15 8.12417 140.15 8.0862 140.14 8.05018C140.111 7.98244 140.058 7.92857 139.99 7.90018H139.42V8.45018H139.88C140.02 8.45018 140.11 8.36018 140.11 8.17018L140.14 8.16018Z" fill="#335658" fill-opacity="0.7"/>
<path d="M9.08 26.86H17.7V20.33L15.61 18.24H11.14L9.05 20.33L9.08 26.86ZM20.24 9.16L18.14 11.25V15.79L20.22 17.88H26.76V9.25H20.24V9.16ZM17.7 0H9.08V6.53L11.14 8.67H15.58L17.67 6.58L17.7 0ZM26.87 26.86V20.33L24.78 18.24H18.25V26.86H26.87ZM2.14 0L0.0499997 2.08V8.67H8.68V0H2.14ZM18.3 0V6.53L20.3 8.67H26.84V0H18.3ZM13.44 14.67C13.2053 14.6682 12.9762 14.5988 12.78 14.47C12.5876 14.3395 12.438 14.1552 12.35 13.94C12.2618 13.7248 12.2375 13.4887 12.28 13.26C12.3311 13.0329 12.4456 12.8249 12.6103 12.6603C12.7749 12.4956 12.9829 12.3811 13.21 12.33C13.4387 12.2875 13.6748 12.3118 13.89 12.4C14.1052 12.488 14.2895 12.6376 14.42 12.83C14.5372 13.0098 14.6037 13.2179 14.6123 13.4324C14.6208 13.6469 14.5713 13.8597 14.4688 14.0482C14.3663 14.2368 14.2147 14.3942 14.0301 14.5036C13.8454 14.6131 13.6346 14.6706 13.42 14.67H13.44ZM8.63 9.13H0V17.76H6.54L8.63 15.67V9.13ZM8.63 20.3L6.54 18.21H0V26.83H6.54L8.63 24.74V20.3Z" fill="#335658" fill-opacity="0.7"/>
</svg>
