<svg width="148" height="27" viewBox="0 0 148 27" fill="none" xmlns="http://www.w3.org/2000/svg">
<path d="M19.0524 23.5057C18.2924 22.5057 17.6424 21.5057 16.8924 20.5057H15.3424C14.6024 20.5057 14.4024 20.2957 14.3424 19.5057C14.3224 19.353 14.3224 19.1984 14.3424 19.0457C14.3424 18.3057 14.5824 18.0457 15.3424 18.0457H16.1124C16.1624 18.0457 16.2024 18.0457 16.2924 17.9357C16.3424 17.0357 16.3924 16.1157 16.4524 15.0957C16.0824 15.0957 15.7524 15.0357 15.4524 15.0357H1.93237C1.62269 15.0557 1.31204 15.0557 1.00237 15.0357C0.726568 14.9885 0.475663 14.8471 0.292365 14.6357C0.112302 14.4226 0.0100402 14.1546 0.00236542 13.8757C-0.0145346 13.6091 0.0595003 13.3447 0.212365 13.1257C0.382875 12.9152 0.618596 12.7674 0.882366 12.7057C1.24095 12.6333 1.60677 12.6031 1.97237 12.6157H17.3324C18.2824 11.6157 19.1124 10.6157 20.0224 9.61568H8.50237C8.16605 9.62749 7.82968 9.59385 7.50237 9.51568C7.22392 9.45174 6.97849 9.28812 6.81237 9.05568C6.64204 8.82568 6.5636 8.54043 6.59237 8.25568C6.61349 7.96925 6.73749 7.70012 6.9415 7.49795C7.14551 7.29578 7.41575 7.17421 7.70237 7.15568C7.95865 7.13589 8.21608 7.13589 8.47237 7.15568H23.0124L24.6024 4.15568C24.2624 4.15568 23.9724 4.15568 23.6724 4.15568H10.9024C10.6194 4.17578 10.3353 4.17578 10.0524 4.15568C9.75811 4.10771 9.48955 3.9593 9.29237 3.73568C9.0935 3.51584 8.97998 3.23203 8.97237 2.93568C8.96543 2.76616 8.98914 2.59678 9.04237 2.43568C9.10094 2.27487 9.19297 2.12831 9.31237 2.00568C9.42744 1.88163 9.56707 1.78287 9.72237 1.71568C9.87658 1.64742 10.0437 1.61331 10.2124 1.61568H26.7924C27.2863 1.60983 27.7723 1.49006 28.2124 1.26568C29.6243 0.506753 31.1897 0.0772939 32.7913 0.0095022C34.3928 -0.0582895 35.9889 0.237345 37.4599 0.874243C38.931 1.51114 40.2387 2.47278 41.2852 3.68705C42.3316 4.90133 43.0896 6.33675 43.5024 7.88568C43.5024 8.00568 43.5924 8.11568 43.6324 8.28568C44.0424 8.45568 44.4724 8.62568 44.8824 8.81568C46.612 9.57865 48.0548 10.8708 49.0032 12.5061C49.9516 14.1415 50.3565 16.0356 50.1597 17.9157C49.9629 19.7959 49.1745 21.565 47.9081 22.9685C46.6416 24.372 44.9625 25.3374 43.1124 25.7257C42.2365 25.9236 41.3403 26.0176 40.4424 26.0057H9.33237C9.1 26.0357 8.86473 26.0357 8.63237 26.0057C8.35164 25.9542 8.09785 25.806 7.91514 25.5867C7.73243 25.3675 7.63237 25.0911 7.63237 24.8057C7.6436 24.5082 7.76062 24.2246 7.96237 24.0057C8.16563 23.7898 8.43804 23.6518 8.73237 23.6157H19.0924L19.0524 23.5057Z" fill="#335658" fill-opacity="0.7"/>
<path d="M114.272 15.3452L116.752 7.94518H118.632C117.382 11.3452 116.162 14.6452 114.952 17.9452H113.362C112.572 15.7852 111.782 13.6352 110.952 11.3252C110.112 13.6052 109.342 15.7552 108.542 17.9352H107.002L103.292 8.03518C103.884 7.81444 104.529 7.77613 105.142 7.92518C105.982 10.3552 106.792 12.7952 107.632 15.2252H107.832C108.682 12.7852 109.542 10.3452 110.412 7.87518H111.502C112.372 10.3252 113.232 12.7852 114.102 15.2352C114.15 15.2843 114.208 15.3219 114.272 15.3452Z" fill="#335658" fill-opacity="0.7"/>
<path d="M93.8626 7.87583H95.4826C96.584 7.84586 97.6862 7.88594 98.7826 7.99583C99.8324 8.12889 100.804 8.62064 101.533 9.38783C102.262 10.155 102.703 11.1505 102.783 12.2058C102.924 12.9356 102.897 13.6881 102.703 14.4058C102.509 15.1234 102.153 15.787 101.663 16.3458C101.166 16.9081 100.548 17.3492 99.8541 17.6352C99.1608 17.9212 98.4111 18.0446 97.6626 17.9958H93.8926C93.6726 14.6264 93.6626 11.2465 93.8626 7.87583ZM95.4826 16.4858C96.5862 16.4743 97.6881 16.3975 98.7826 16.2558C99.4814 16.1102 100.105 15.7202 100.543 15.1558C100.991 14.5868 101.227 13.8799 101.213 13.1558C101.289 12.4633 101.146 11.7642 100.803 11.1575C100.46 10.5509 99.9354 10.0675 99.3026 9.77583C98.0626 9.26583 96.8026 9.52583 95.4826 9.49583V16.4858Z" fill="#335658" fill-opacity="0.7"/>
<path d="M71.7823 13.0264C71.7525 12.3162 71.8717 11.6077 72.1323 10.9464C72.3947 10.2896 72.7896 9.69386 73.2923 9.19637C73.7945 8.69366 74.3968 8.30212 75.06 8.04716C75.7233 7.79219 76.4327 7.67949 77.1423 7.71637C77.8467 7.67805 78.5513 7.78922 79.2096 8.04257C79.868 8.29593 80.4653 8.68573 80.9623 9.18637C81.4577 9.69159 81.8425 10.2944 82.0923 10.9564C82.3442 11.6158 82.4499 12.3221 82.4023 13.0264C82.4023 14.4347 81.8429 15.7853 80.8471 16.7811C79.8512 17.7769 78.5006 18.3364 77.0923 18.3364C75.684 18.3364 74.3334 17.7769 73.3376 16.7811C72.3418 15.7853 71.7823 14.4347 71.7823 13.0264ZM77.0923 16.7364C77.5824 16.7637 78.0728 16.6887 78.5323 16.5164C78.9877 16.3372 79.4026 16.0686 79.7523 15.7264C80.0976 15.3768 80.3651 14.9582 80.5374 14.4981C80.7097 14.038 80.783 13.5467 80.7523 13.0564C80.7786 12.5619 80.7034 12.0673 80.5315 11.603C80.3595 11.1387 80.0943 10.7144 79.7523 10.3564C79.406 9.99996 78.991 9.71758 78.5323 9.52637C78.0766 9.33636 77.5859 9.24437 77.0923 9.25637C76.1004 9.25637 75.1491 9.6504 74.4477 10.3518C73.7464 11.0532 73.3523 12.0045 73.3523 12.9964C73.3523 13.9883 73.7464 14.9396 74.4477 15.6409C75.1491 16.3423 76.1004 16.7364 77.0923 16.7364Z" fill="#335658" fill-opacity="0.7"/>
<path d="M122.832 7.93555H124.702C126.212 11.2355 127.702 14.5255 129.292 17.9355H127.532C127.222 17.3355 126.892 16.6655 126.532 15.9955H120.962C120.652 16.6355 120.342 17.2855 119.962 17.9955H118.212C119.752 14.5555 121.342 11.2955 122.832 7.93555ZM123.832 9.93555H123.612C122.962 11.3855 122.302 12.8355 121.612 14.3655H125.832C125.212 12.8155 124.532 11.3655 123.832 9.90555V9.93555Z" fill="#335658" fill-opacity="0.7"/>
<path d="M146.782 9.36642L145.482 10.1364C145.11 9.77406 144.663 9.49759 144.172 9.32641C143.683 9.14882 143.16 9.08387 142.642 9.13642C142.112 9.18575 141.597 9.34586 141.132 9.60642C140.94 9.70643 140.781 9.85905 140.672 10.0464C140.563 10.2335 140.517 10.4511 140.542 10.6664C140.563 10.8806 140.643 11.0849 140.772 11.2564C140.912 11.4218 141.096 11.5433 141.302 11.6064C141.81 11.7841 142.332 11.918 142.862 12.0064C143.672 12.2064 144.522 12.3264 145.332 12.5864C145.864 12.7347 146.334 13.0503 146.672 13.4864C147.013 13.9209 147.202 14.4545 147.212 15.0064C147.266 15.5645 147.14 16.1251 146.852 16.6064C146.569 17.0871 146.138 17.4627 145.622 17.6764C144.776 18.0848 143.848 18.2969 142.907 18.2969C141.967 18.2969 141.039 18.0848 140.192 17.6764C139.436 17.3271 138.834 16.7112 138.502 15.9464L139.632 15.1464L140.112 15.5764C140.649 16.1389 141.337 16.533 142.094 16.7106C142.85 16.8882 143.642 16.8415 144.372 16.5764C144.689 16.5076 144.974 16.3352 145.182 16.0864C145.39 15.8382 145.513 15.5297 145.532 15.2064C145.523 14.8954 145.411 14.5963 145.212 14.3564C145.01 14.1165 144.731 13.954 144.422 13.8964C143.712 13.6764 142.962 13.5964 142.242 13.4164C141.551 13.2848 140.879 13.0664 140.242 12.7664C139.889 12.5706 139.587 12.2929 139.362 11.9564C139.134 11.6224 138.99 11.2381 138.942 10.8364C138.892 10.4334 138.943 10.0242 139.092 9.64642C139.231 9.26331 139.461 8.91994 139.762 8.64642C140.725 7.96044 141.882 7.60267 143.064 7.62608C144.245 7.64949 145.388 8.05286 146.322 8.77642C146.442 8.92642 146.562 9.10642 146.782 9.36642Z" fill="#335658" fill-opacity="0.7"/>
<path d="M83.5824 7.94531H85.1224V13.3553C85.1224 13.6895 85.1425 14.0235 85.1824 14.3553C85.2327 14.7579 85.3728 15.1441 85.5924 15.4853C85.8042 15.8321 86.0956 16.1235 86.4424 16.3353C86.7927 16.5459 87.1856 16.6757 87.5924 16.7153C87.9915 16.7719 88.3983 16.7377 88.7824 16.6153C89.2906 16.4634 89.7339 16.1468 90.0424 15.7153C90.3517 15.2814 90.5098 14.7579 90.4924 14.2253C90.4924 12.5153 90.4924 10.7953 90.4924 9.08531C90.4694 8.72901 90.4694 8.37161 90.4924 8.01531H92.2124C92.2124 8.32531 92.2124 8.57531 92.2124 8.82531V13.9153C92.2945 14.7294 92.111 15.5483 91.6892 16.2494C91.2674 16.9506 90.6301 17.4964 89.8724 17.8053C89.0377 18.1919 88.1094 18.3306 87.1982 18.2047C86.2869 18.0788 85.431 17.6937 84.7324 17.0953C84.3773 16.8154 84.0864 16.4625 83.8794 16.0606C83.6724 15.6586 83.5541 15.2169 83.5324 14.7653C83.4424 12.5853 83.4724 10.4253 83.4424 8.24531C83.4986 8.15008 83.5455 8.04961 83.5824 7.94531Z" fill="#335658" fill-opacity="0.7"/>
<path d="M62.6024 9.39571C62.2424 9.73571 61.9024 10.0357 61.5324 10.3957C61.0328 9.97392 60.4429 9.67251 59.8084 9.51473C59.1738 9.35696 58.5115 9.34703 57.8724 9.48571C57.0861 9.62717 56.3765 10.0458 55.8724 10.6657C55.3555 11.3572 55.0762 12.1974 55.0762 13.0607C55.0762 13.9241 55.3555 14.7642 55.8724 15.4557C56.2214 15.8536 56.6523 16.1714 57.1356 16.3872C57.6189 16.6029 58.1432 16.7116 58.6724 16.7057C59.742 16.7445 60.7884 16.3886 61.6125 15.7057L62.6825 16.7057C61.2125 18.6157 57.2125 18.9157 55.0724 17.0557C54.0381 16.0429 53.4395 14.6665 53.404 13.2193C53.3685 11.772 53.8989 10.368 54.8824 9.30571C56.8424 7.23571 60.8424 7.26571 62.6024 9.39571Z" fill="#335658" fill-opacity="0.7"/>
<path d="M135.973 7.87566H137.213C137.435 7.87081 137.656 7.89433 137.873 7.94566C137.703 8.24566 137.593 8.48566 137.443 8.70566C136.373 10.2457 135.323 11.7957 134.243 13.3257C133.972 13.6968 133.832 14.1466 133.843 14.6057V17.1357C133.85 17.4037 133.83 17.6717 133.783 17.9357H132.213C132.189 17.7441 132.156 17.5538 132.113 17.3657C132.103 17.2359 132.103 17.1055 132.113 16.9757C132.209 15.9389 132.176 14.8941 132.013 13.8657C131.594 12.9306 131.042 12.0615 130.373 11.2857C129.813 10.4457 129.243 9.63566 128.693 8.79566C128.533 8.56566 128.393 8.33566 128.183 7.97566C128.841 7.84571 129.517 7.82544 130.183 7.91566C131.093 9.33566 132.003 10.7557 132.973 12.2857L135.973 7.87566Z" fill="#335658" fill-opacity="0.7"/>
<path d="M63.7723 7.93555H65.3323V16.4255H70.6923V17.8555C68.4015 18.0672 66.0973 18.094 63.8023 17.9355C63.5823 14.6062 63.5722 11.2662 63.7723 7.93555Z" fill="#335658" fill-opacity="0.7"/>
<path d="M5.9926 20.4562H1.9126C1.0526 20.4562 0.912598 20.2862 0.912598 19.4562V19.0762C0.912598 18.2662 1.1126 18.0762 1.9126 18.0762H10.2126C11.0426 18.0762 11.2126 18.3262 11.2126 19.0762V19.3862C11.2126 20.2962 11.0326 20.4762 10.1326 20.4762L5.9926 20.4562Z" fill="#335658" fill-opacity="0.7"/>
</svg>
