<svg width="98" height="19" viewBox="0 0 98 19" fill="none" xmlns="http://www.w3.org/2000/svg">
<path d="M41.7404 3.01777C41.0057 2.30347 40.1408 1.73454 39.1919 1.34134C38.2193 0.925938 37.1716 0.711368 36.1128 0.710678C35.1081 0.688038 34.1087 0.862546 33.1719 1.2242C32.2352 1.58585 31.3796 2.12753 30.6541 2.81819L29.3357 1.34134C29.2665 1.263 29.1811 1.20035 29.0854 1.15765C28.9897 1.11495 28.8859 1.0932 28.7809 1.09386C28.6842 1.09226 28.5882 1.11132 28.4996 1.14974C28.4117 1.183 28.3322 1.23475 28.2664 1.30142C28.1972 1.3675 28.1423 1.44687 28.105 1.53471C28.0677 1.62255 28.0487 1.717 28.0494 1.81233V18.2573C28.0517 18.436 28.1189 18.6077 28.2385 18.7412C28.3581 18.8746 28.5221 18.9608 28.7005 18.9838H31.8279C32.0213 18.9823 32.2063 18.9048 32.3424 18.7683C32.4757 18.6271 32.5528 18.4427 32.5594 18.2494V8.74957C32.5616 8.29426 32.6545 7.84387 32.8328 7.42439C33.0076 7.01678 33.2586 6.64569 33.5724 6.33072C33.8997 6.01071 34.2878 5.75837 34.714 5.5883C35.1372 5.41568 35.591 5.32883 36.0485 5.33284C36.5049 5.33023 36.9568 5.42269 37.375 5.60426C38.2011 5.9567 38.8559 6.61552 39.2 7.44036C39.3692 7.84805 39.4566 8.28465 39.4572 8.72562V18.2094C39.4572 18.4042 39.5351 18.591 39.6739 18.7288C39.8126 18.8665 40.0007 18.9439 40.1968 18.9439H43.3483C43.445 18.9455 43.541 18.9264 43.6297 18.888C43.7191 18.8497 43.8008 18.7956 43.8708 18.7283C43.9357 18.6582 43.9875 18.5771 44.0236 18.4888C44.0623 18.4008 44.0815 18.3055 44.0799 18.2094V8.71764C44.0876 7.63963 43.8714 6.5716 43.4447 5.58032C43.049 4.62465 42.4702 3.75437 41.7404 3.01777ZM77.2342 1.05395H64.9259C64.8292 1.05234 64.7332 1.0714 64.6446 1.10983C64.5551 1.1481 64.4734 1.2022 64.4034 1.26949C64.3385 1.33963 64.2868 1.42074 64.2506 1.50898C64.2119 1.59704 64.1927 1.69232 64.1944 1.78838V4.88579C64.1935 4.98104 64.2099 5.07567 64.2426 5.1652C64.2809 5.25228 64.3325 5.33304 64.3953 5.40469C64.4643 5.46948 64.543 5.52334 64.6285 5.56435C64.7181 5.59958 64.8135 5.61851 64.9099 5.62023H65.7138C65.8105 5.61863 65.9065 5.63768 65.9952 5.67611C66.0858 5.71223 66.1679 5.76659 66.2364 5.83577C66.3041 5.90527 66.3586 5.98642 66.3971 6.07526C66.4358 6.16332 66.455 6.25861 66.4534 6.35467V10.921C66.4542 12.5003 66.9225 14.0446 67.8001 15.3618C68.6778 16.679 69.926 17.7109 71.3896 18.3292C72.3794 18.7527 73.4471 18.9675 74.5249 18.9598H77.2744C77.4688 18.9554 77.6537 18.8751 77.7889 18.7363C77.8559 18.669 77.9089 18.5892 77.9448 18.5016C77.9806 18.4139 77.9987 18.32 77.9979 18.2254V15.1519C77.9999 14.9584 77.9247 14.7719 77.7889 14.633C77.6501 14.4995 77.4674 14.4202 77.2744 14.4095H74.5249C74.0553 14.4151 73.5896 14.3227 73.1582 14.1381C72.7461 13.9597 72.3701 13.7081 72.0488 13.3957C71.7321 13.077 71.4809 12.7001 71.3092 12.286C71.1288 11.8591 71.0385 11.3999 71.0439 10.9369V6.34668C71.0472 6.16565 71.1124 5.99112 71.2288 5.85174C71.3453 5.71554 71.5086 5.62731 71.687 5.60426H77.2021C77.2985 5.60254 77.3938 5.58362 77.4834 5.54838C77.57 5.50928 77.649 5.45522 77.7166 5.38872C77.7815 5.31858 77.8332 5.23747 77.8693 5.14923C77.908 5.06118 77.9272 4.96589 77.9256 4.86983V1.78838C77.9287 1.69602 77.9133 1.60397 77.8802 1.51761C77.847 1.43125 77.7969 1.35232 77.7327 1.28545C77.6056 1.14799 77.4298 1.06497 77.2423 1.05395H77.2342ZM97.2764 0.718661C97.1678 0.719471 97.0608 0.744001 96.9628 0.790508C96.8666 0.835411 96.7815 0.900827 96.7136 0.9821L95.6042 2.27535C95.545 2.3503 95.4709 2.41237 95.3866 2.45769C95.3022 2.50301 95.2093 2.53061 95.1138 2.53879C94.9207 2.55166 94.7295 2.49497 94.5751 2.37913C94.32 2.14827 94.0516 1.93237 93.7712 1.7325C93.2786 1.38952 92.7598 1.08524 92.2196 0.82244C91.6869 0.565015 91.1293 0.361744 90.5554 0.215731C89.9852 0.0724658 89.3992 6.45856e-05 88.8109 0.000189436C87.5803 -0.00770534 86.3607 0.231238 85.2253 0.702695C84.1275 1.15288 83.1323 1.81806 82.299 2.65853C81.4488 3.52274 80.7794 4.54563 80.3294 5.66813C79.8462 6.88516 79.6059 8.18388 79.6219 9.49199C79.5965 10.8561 79.8396 12.2119 80.3374 13.4835C80.7712 14.617 81.4394 15.6477 82.299 16.5091C83.1337 17.3223 84.1305 17.9531 85.2253 18.3611C86.3706 18.7918 87.5863 19.0083 88.8109 18.9998C89.3918 19.0011 89.9703 18.926 90.5313 18.7762C91.1036 18.6321 91.6609 18.4343 92.1955 18.1855C92.7339 17.9363 93.2502 17.6425 93.739 17.3074C94.0124 17.1158 94.2777 16.9162 94.543 16.7166C94.6973 16.6008 94.8886 16.5441 95.0816 16.557C95.1772 16.5651 95.27 16.5927 95.3544 16.6381C95.4388 16.6834 95.5128 16.7454 95.572 16.8204L96.6734 18.3372C96.7288 18.4149 96.8 18.4802 96.8824 18.5288C96.9589 18.5828 97.047 18.6183 97.1397 18.6325C97.2351 18.6526 97.3337 18.6526 97.4291 18.6325C97.5219 18.6138 97.6096 18.5757 97.6864 18.5208C97.784 18.4559 97.8641 18.3682 97.9195 18.2653C97.9743 18.162 98.0019 18.0467 97.9999 17.93V1.4531C98.0007 1.35846 97.9826 1.26461 97.9467 1.17693C97.9109 1.08926 97.8579 1.00948 97.7909 0.942185C97.6567 0.80667 97.4756 0.726784 97.2844 0.718661H97.2764ZM93.0155 11.3281C92.7835 11.9123 92.4517 12.4525 92.0347 12.9247C91.6201 13.3748 91.1237 13.7432 90.5715 14.0104C90.0201 14.2839 89.4112 14.4234 88.7948 14.4175C88.1853 14.4198 87.5805 14.3116 87.0101 14.0982C86.4646 13.8922 85.9708 13.5708 85.563 13.1562C85.1365 12.7213 84.8077 12.2017 84.5983 11.6314C84.351 10.9594 84.2337 10.2471 84.2526 9.53191C84.2438 8.81866 84.3664 8.10982 84.6143 7.44036C84.8308 6.89006 85.1592 6.39001 85.5791 5.97148C85.9868 5.55689 86.4807 5.23545 87.0262 5.02949C87.5939 4.81671 88.196 4.7085 88.8029 4.71017C89.4218 4.70418 90.0334 4.84369 90.5876 5.1173C91.1308 5.37082 91.6215 5.72278 92.0347 6.15509C92.4517 6.62732 92.7835 7.16745 93.0155 7.7517C93.4894 8.91949 93.4894 10.2242 93.0155 11.3919V11.3281ZM3.95537 1.01403H0.739622C0.543462 1.01403 0.355336 1.09141 0.21663 1.22914C0.0779241 1.36688 0 1.55368 0 1.74847V18.2494C0 18.4441 0.0779241 18.6309 0.21663 18.7687C0.355336 18.9064 0.543462 18.9838 0.739622 18.9838H3.95537C4.1498 18.9794 4.33465 18.899 4.46989 18.7603C4.5369 18.693 4.58986 18.6132 4.62573 18.5255C4.6616 18.4378 4.67967 18.344 4.67891 18.2494V1.74847C4.67975 1.65322 4.66341 1.5586 4.63068 1.46906C4.59233 1.38198 4.54082 1.30122 4.47793 1.22957C4.40893 1.16478 4.3303 1.11093 4.24479 1.06991C4.15513 1.03468 4.05982 1.01575 3.96341 1.01403H3.95537ZM16.8184 2.2035C16.9046 2.09872 16.9578 1.97096 16.9711 1.83628C16.9845 1.69996 16.9624 1.5625 16.9068 1.43713C16.8481 1.31614 16.7596 1.2118 16.6495 1.13378C16.5333 1.06187 16.4004 1.02065 16.2636 1.01403H12.6781C12.5694 1.01403 12.4622 1.0386 12.3645 1.08588C12.2669 1.12852 12.1813 1.19431 12.1153 1.27747L5.02461 9.49199C4.90595 9.62372 4.84036 9.79424 4.84036 9.97097C4.84036 10.1477 4.90595 10.3182 5.02461 10.45L12.1957 18.6884C12.2676 18.7688 12.3551 18.834 12.453 18.88C12.5496 18.9209 12.6534 18.9426 12.7585 18.9439H16.344C16.444 18.9436 16.5428 18.9218 16.6335 18.88C16.7242 18.837 16.806 18.7774 16.8746 18.7044C16.943 18.6292 16.9947 18.5406 17.0266 18.4444C17.0584 18.3482 17.0697 18.2464 17.0595 18.1456C17.0579 17.9915 17.0041 17.8425 16.9068 17.7225L10.4753 10.4579C10.3608 10.3227 10.298 10.1517 10.298 9.97496C10.298 9.79826 10.3608 9.62723 10.4753 9.49199L16.8184 2.2035ZM23.7161 1.01403C23.6101 1.01411 23.5055 1.03871 23.4106 1.08588C23.3127 1.12443 23.2247 1.18446 23.1534 1.26151L23.0167 1.42915L20.0341 4.82193C19.9206 4.95618 19.8581 5.12564 19.8572 5.30091V18.2494C19.8564 18.3446 19.8727 18.4392 19.9055 18.5288C19.9438 18.6158 19.9953 18.6966 20.0582 18.7683C20.1272 18.833 20.2059 18.8869 20.2914 18.9279C20.381 18.9631 20.4763 18.9821 20.5727 18.9838H23.7161C23.9106 18.9794 24.0954 18.899 24.2307 18.7603C24.2977 18.693 24.3506 18.6132 24.3865 18.5255C24.4224 18.4378 24.4404 18.344 24.4397 18.2494V1.74847C24.4404 1.65384 24.4224 1.55998 24.3865 1.47231C24.3506 1.38463 24.2977 1.30485 24.2307 1.23756C24.0954 1.09877 23.9106 1.01847 23.7161 1.01403ZM61.2921 9.42813C60.766 8.93914 60.1488 8.55679 59.4752 8.30252C58.7662 8.03754 58.014 7.90492 57.2564 7.91135H52.4328C52.2836 7.91072 52.1361 7.88088 51.9986 7.82354C51.8588 7.7648 51.7329 7.6778 51.6288 7.56808C51.4909 7.38124 51.4074 7.16028 51.3876 6.92944C51.355 6.70136 51.3885 6.46877 51.4841 6.25887C51.5755 6.05013 51.7264 5.87252 51.9182 5.74796C52.1122 5.62225 52.3378 5.55311 52.5694 5.54838H61.1555C61.3489 5.54692 61.5339 5.46942 61.67 5.33284C61.8033 5.19171 61.8804 5.00732 61.8871 4.81395V1.78838C61.8887 1.69232 61.8695 1.59704 61.8308 1.50898C61.7947 1.42074 61.7429 1.33963 61.678 1.26949C61.608 1.2022 61.5263 1.1481 61.4369 1.10983C61.3482 1.0714 61.2522 1.05234 61.1555 1.05395H52.473C51.6883 1.03751 50.9094 1.19003 50.1898 1.501C49.1631 1.94516 48.2904 2.67903 47.6801 3.61147C47.0698 4.5439 46.7488 5.63381 46.757 6.74584C46.7567 7.86226 47.0804 8.95513 47.6891 9.89374C48.2979 10.8323 49.1661 11.577 50.1898 12.0386C50.8957 12.3402 51.6563 12.495 52.4247 12.4936H57.3609C57.6075 12.4852 57.8475 12.5742 58.0282 12.7411C58.2118 12.9034 58.3266 13.1287 58.3497 13.3717C58.374 13.4956 58.374 13.623 58.3497 13.7469C58.3123 13.8679 58.2493 13.9795 58.1648 14.0742C58.0836 14.1707 57.9856 14.2518 57.8754 14.3137C57.7631 14.3722 57.64 14.4075 57.5136 14.4175H47.4966C47.3026 14.4175 47.1165 14.494 46.9793 14.6303C46.8421 14.7665 46.765 14.9513 46.765 15.144V18.2414C46.7642 18.336 46.7823 18.4299 46.8182 18.5175C46.8541 18.6052 46.907 18.685 46.974 18.7523C47.1093 18.8911 47.2941 18.9714 47.4885 18.9758H57.2725C58.0127 18.9716 58.7449 18.8224 59.427 18.5367C60.1242 18.253 60.7581 17.8352 61.2921 17.3074C61.7994 16.7795 62.2029 16.1622 62.482 15.4872C62.786 14.8023 62.9499 14.0642 62.9643 13.3159C62.9739 12.5726 62.8174 11.8365 62.5061 11.1604C62.2333 10.51 61.8314 9.92089 61.3243 9.42813H61.2921Z" fill="#335658" fill-opacity="0.7"/>
</svg>
