<svg width="127" height="24" viewBox="0 0 127 24" fill="none" xmlns="http://www.w3.org/2000/svg">
<path d="M11.63 21.3101C9.69765 21.2923 7.81378 20.7031 6.21571 19.6166C4.61763 18.5301 3.37684 16.995 2.64964 15.2046C1.92244 13.4143 1.74136 11.4487 2.12921 9.5556C2.51707 7.6625 3.4565 5.92651 4.82917 4.56635C6.20184 3.20618 7.94635 2.28267 9.84293 1.91216C11.7395 1.54164 13.7033 1.7407 15.487 2.48426C17.2706 3.22781 18.7943 4.4826 19.8661 6.09055C20.9379 7.6985 21.5099 9.58768 21.51 11.5201C21.4968 14.1281 20.4487 16.6242 18.5961 18.4599C16.7436 20.2956 14.238 21.3207 11.63 21.3101ZM11.63 0.000108767C8.56051 -0.0131858 5.61132 1.19275 3.43055 3.35289C1.24978 5.51303 0.0158755 8.45063 0 11.5201C0 14.6046 1.2253 17.5627 3.40635 19.7438C5.5874 21.9248 8.54553 23.1501 11.63 23.1501C14.7145 23.1501 17.6726 21.9248 19.8537 19.7438C22.0347 17.5627 23.26 14.6046 23.26 11.5201C23.2441 8.45063 22.0102 5.51303 19.8295 3.35289C17.6487 1.19275 14.6995 -0.0131858 11.63 0.000108767Z" fill="#335658" fill-opacity="0.7"/>
<path d="M17.5097 13.4199V5.12988L16.1597 6.12988V13.3799C16.1597 13.5629 16.087 13.7384 15.9576 13.8678C15.8282 13.9972 15.6527 14.0699 15.4697 14.0699C15.2867 14.0699 15.1112 13.9972 14.9818 13.8678C14.8524 13.7384 14.7797 13.5629 14.7797 13.3799V9.56988C14.81 9.00498 14.6175 8.45073 14.2435 8.02625C13.8695 7.60178 13.3439 7.34098 12.7797 7.29988C12.2155 7.34098 11.6899 7.60178 11.3159 8.02625C10.9419 8.45073 10.7494 9.00498 10.7797 9.56988V13.4199C10.7915 13.5182 10.7823 13.6178 10.7528 13.7123C10.7233 13.8067 10.6741 13.8939 10.6084 13.9679C10.5427 14.042 10.4621 14.1012 10.3718 14.1418C10.2815 14.1824 10.1837 14.2034 10.0847 14.2034C9.98573 14.2034 9.88788 14.1824 9.79761 14.1418C9.70735 14.1012 9.62671 14.042 9.56104 13.9679C9.49536 13.8939 9.44613 13.8067 9.41659 13.7123C9.38706 13.6178 9.3779 13.5182 9.38971 13.4199V9.56988C9.40311 9.28077 9.35855 8.99191 9.25864 8.72028C9.15874 8.44865 9.0055 8.19975 8.80796 7.98823C8.61042 7.77671 8.37256 7.60685 8.10838 7.48863C7.84421 7.37042 7.55905 7.30624 7.26971 7.29988C6.70548 7.34098 6.1799 7.60178 5.80591 8.02625C5.43193 8.45073 5.2394 9.00498 5.26971 9.56988V17.8599L6.60971 16.8599V9.56988C6.60431 9.47398 6.61789 9.37796 6.64966 9.28732C6.68144 9.19668 6.7308 9.11321 6.79489 9.04168C6.85899 8.97014 6.93658 8.91197 7.02321 8.87047C7.10983 8.82898 7.20379 8.80499 7.29971 8.79988C7.39648 8.80371 7.49153 8.82676 7.5793 8.86769C7.66708 8.90861 7.74584 8.9666 7.81099 9.03826C7.87614 9.10992 7.92638 9.19384 7.95878 9.28511C7.99117 9.37638 8.00509 9.47318 7.99971 9.56988V13.4199C7.97199 13.9842 8.16542 14.537 8.5389 14.9609C8.91237 15.3848 9.43644 15.6463 9.99971 15.6899C10.563 15.6463 11.087 15.3848 11.4605 14.9609C11.834 14.537 12.0274 13.9842 11.9997 13.4199V9.56988C11.9997 9.38688 12.0724 9.21138 12.2018 9.08198C12.3312 8.95258 12.5067 8.87988 12.6897 8.87988C12.8727 8.87988 13.0482 8.95258 13.1776 9.08198C13.307 9.21138 13.3797 9.38688 13.3797 9.56988V13.4199C13.3494 13.9848 13.5419 14.539 13.9159 14.9635C14.2899 15.388 14.8155 15.6488 15.3797 15.6899C15.9439 15.6488 16.4695 15.388 16.8435 14.9635C17.2175 14.539 17.41 13.9848 17.3797 13.4199H17.5097Z" fill="#335658" fill-opacity="0.7"/>
<path d="M42.5099 5.12953L40.9999 11.5295C40.8599 12.0295 40.7399 12.5995 40.6299 13.1395C40.5199 13.6795 40.4199 14.1395 40.3399 14.4795L40.2199 14.9395L40.1099 14.4995L39.7899 13.2095C39.6699 12.6795 39.5399 12.0695 39.3999 11.5595L37.5899 5.12953H35.6699L33.9199 11.5295C33.7799 12.0495 33.6499 12.6195 33.5199 13.1595L33.0599 14.9995L32.6799 13.2195C32.5599 12.6695 32.4299 12.0495 32.2999 11.5595L30.7499 5.15953H28.4199L31.9999 18.1795H33.9999L35.7399 11.6795C35.8799 11.1695 36.0099 10.6795 36.1399 10.1495C36.2699 9.61953 36.3599 9.14953 36.4299 8.87953L36.5399 8.33953L36.6599 8.87953C36.7199 9.19953 36.8199 9.61953 36.9499 10.1495C37.0799 10.6795 37.2099 11.1495 37.3399 11.6495L39.1099 18.1795H41.1599L44.7899 5.17953L42.5099 5.12953ZM75.5099 6.46953C75.1236 5.97406 74.6217 5.58095 74.0481 5.32465C73.4744 5.06836 72.8467 4.95672 72.2199 4.99953C71.7724 4.98953 71.3255 5.03657 70.8899 5.13953C70.5411 5.22085 70.2047 5.34866 69.8899 5.51953C69.5802 5.67519 69.2941 5.87382 69.0399 6.10953C68.7742 6.35482 68.5299 6.62247 68.3099 6.90953L68.1999 7.04953L68.1199 6.88953C67.8105 6.29933 67.3386 5.81005 66.7599 5.47953C66.0747 5.128 65.3092 4.96249 64.5399 4.99953C63.9178 4.98775 63.3014 5.12129 62.7399 5.38953C62.2288 5.64048 61.7913 6.01943 61.4699 6.48953L61.2499 6.71953V5.08953H58.5499V18.1795H60.9999V10.6795C60.9985 9.77066 61.2779 8.88353 61.7999 8.13953C62.0506 7.82588 62.3734 7.57751 62.7408 7.41557C63.1082 7.25363 63.5093 7.18295 63.9099 7.20953C64.262 7.18429 64.6147 7.24906 64.9349 7.39777C65.255 7.54647 65.5321 7.77421 65.7399 8.05953C66.1775 8.9485 66.3411 9.94743 66.2099 10.9295V18.1795H68.5199V10.6795C68.5482 9.75982 68.8629 8.87188 69.4199 8.13953C69.6913 7.82417 70.0321 7.57605 70.4156 7.41468C70.799 7.25331 71.2147 7.18309 71.6299 7.20953C71.9922 7.18337 72.3553 7.2473 72.6868 7.39562C73.0183 7.54393 73.308 7.77202 73.5299 8.05953C73.9722 8.94698 74.136 9.94736 73.9999 10.9295V18.1795H76.4799V10.8195C76.6103 9.30059 76.2605 7.77906 75.4799 6.46953H75.5099ZM86.3799 16.9995L86.6099 16.6495V18.1495H88.6099V5.14953H86.2499V12.8995C86.3507 13.7894 86.15 14.6873 85.6799 15.4495C85.4458 15.7532 85.1416 15.9956 84.7932 16.1558C84.4449 16.3161 84.0628 16.3894 83.6799 16.3695C83.2809 16.3905 82.882 16.3265 82.5096 16.1817C82.1373 16.0369 81.7999 15.8146 81.5199 15.5295C80.9136 14.6972 80.6229 13.6764 80.6999 12.6495V5.12953H78.2999V12.7495C78.2215 14.3011 78.6768 15.8327 79.5899 17.0895C80.0247 17.5774 80.565 17.9598 81.1698 18.2076C81.7745 18.4554 82.4278 18.5621 83.0799 18.5195C83.7402 18.5255 84.3943 18.3927 84.9999 18.1295C85.5578 17.8869 86.0385 17.4961 86.3899 16.9995H86.3799ZM97.5299 15.7895C97.03 16.1342 96.4372 16.319 95.8299 16.3195C95.3841 16.3375 94.9412 16.2391 94.5449 16.0339C94.1487 15.8288 93.8126 15.524 93.5699 15.1495C92.9654 14.0186 92.6982 12.7379 92.7999 11.4595C92.7268 10.344 92.9916 9.23228 93.5599 8.26953C93.8136 7.91457 94.1529 7.62945 94.5463 7.44064C94.9396 7.25184 95.3743 7.16546 95.8099 7.18953C96.1499 7.18581 96.4881 7.23991 96.8099 7.34953C97.1244 7.46025 97.4262 7.60441 97.7099 7.77953C97.927 7.93998 98.122 8.12826 98.2899 8.33953C98.3752 8.42048 98.439 8.52134 98.4756 8.63304C98.5123 8.74475 98.5206 8.86381 98.4999 8.97953V14.5995C98.4999 15.0295 98.0799 15.4695 97.4999 15.8195L97.5299 15.7895ZM100.78 18.1495V0.269531L98.4799 1.48953V6.73953L98.5399 6.51953C98.1773 6.11148 97.7436 5.77265 97.2599 5.51953C96.719 5.20109 96.1072 5.02238 95.4799 4.99953C94.8234 4.99836 94.1735 5.13107 93.5699 5.38953C92.9587 5.67744 92.4216 6.10164 91.9999 6.62953C91.5015 7.21803 91.1213 7.89708 90.8799 8.62953C90.5824 9.56676 90.4406 10.5464 90.4599 11.5295C90.4386 12.6059 90.5699 13.6799 90.8499 14.7195C91.0521 15.5032 91.4167 16.2357 91.9199 16.8695C92.3386 17.3996 92.8812 17.8185 93.4999 18.0895C94.1328 18.3554 94.8136 18.4882 95.4999 18.4795C96.0887 18.492 96.6696 18.3433 97.1799 18.0495C97.7063 17.7086 98.1726 17.2828 98.5599 16.7895V18.1395H100.86L100.78 18.1495ZM105.63 10.3295C105.692 9.43874 106.043 8.59253 106.63 7.91953C106.906 7.62468 107.243 7.39462 107.618 7.24591C107.994 7.09721 108.397 7.03355 108.8 7.05953C109.293 7.05472 109.781 7.15708 110.23 7.35953C110.617 7.53357 110.959 7.79348 111.23 8.11953C111.498 8.44317 111.699 8.81718 111.82 9.21953C111.951 9.57712 112.035 9.95025 112.07 10.3295V10.2995H105.63V10.3595V10.3295ZM111.91 15.3795C111.511 15.6793 111.074 15.9248 110.61 16.1095C110.109 16.3028 109.576 16.3978 109.04 16.3895C108.626 16.3929 108.216 16.3183 107.83 16.1695C107.454 16.0176 107.113 15.7894 106.83 15.4995C106.494 15.1674 106.226 14.7735 106.04 14.3395C105.82 13.8241 105.682 13.2775 105.63 12.7195V12.6395H114.44C114.424 12.4899 114.424 12.3391 114.44 12.1895C114.44 11.9795 114.44 11.7395 114.44 11.5095C114.44 10.6613 114.326 9.817 114.1 8.99953C113.903 8.25153 113.564 7.54863 113.1 6.92953C112.647 6.33569 112.061 5.85621 111.39 5.52953C110.645 5.17052 109.827 4.9891 109 4.99953C108.205 4.99107 107.416 5.14063 106.68 5.43953C105.993 5.72878 105.381 6.16982 104.89 6.72953C104.362 7.34344 103.964 8.05777 103.72 8.82953C103.421 9.77358 103.276 10.7595 103.29 11.7495C103.274 12.725 103.426 13.6959 103.74 14.6195C104.005 15.3986 104.42 16.1186 104.96 16.7395C105.453 17.2996 106.065 17.7435 106.75 18.0395C107.435 18.3345 108.174 18.4843 108.92 18.4795C109.794 18.505 110.664 18.3554 111.48 18.0395C112.164 17.7585 112.794 17.359 113.34 16.8595L111.95 15.3695L111.91 15.3795ZM124 5.12953L121.75 12.2895C121.54 12.9195 121.36 13.5795 121.2 14.1495C121.04 14.7195 120.92 15.2195 120.84 15.5795L120.72 16.0895L120.61 15.5995C120.52 15.2295 120.39 14.7595 120.22 14.1995C120.05 13.6395 119.85 12.9395 119.62 12.2895L117.27 5.12953H114.8L119.47 18.1795H121.91L126.51 5.17953L124 5.12953ZM54.2799 15.2695C54.0235 15.629 53.6794 15.9169 53.2803 16.1059C52.8813 16.2949 52.4405 16.3788 51.9999 16.3495C51.6594 16.35 51.3212 16.2925 50.9999 16.1795C50.6921 16.0722 50.397 15.9313 50.1199 15.7595C49.8526 15.5973 49.6014 15.4098 49.3699 15.1995C49.1639 15.0082 48.9733 14.8009 48.7999 14.5795V8.99953C49.1744 8.53571 49.6199 8.13408 50.1199 7.80953C50.6677 7.41647 51.3257 7.20648 51.9999 7.20953C52.4524 7.19154 52.902 7.29072 53.3049 7.49745C53.7079 7.70418 54.0506 8.01146 54.2999 8.38953C54.8784 9.52469 55.1212 10.8013 54.9999 12.0695C55.0707 13.1868 54.8098 14.3001 54.2499 15.2695H54.2799ZM55.8399 16.9295C56.3419 16.3419 56.7256 15.6628 56.9699 14.9295C57.2876 13.9856 57.4465 12.9955 57.4399 11.9995C57.4599 10.9232 57.3286 9.84937 57.0499 8.80953C56.8445 8.0278 56.4878 7.29394 55.9999 6.64953C55.5775 6.11908 55.0316 5.7002 54.4099 5.42953C53.7778 5.16139 53.0965 5.02854 52.4099 5.03953C51.7703 5.02737 51.1379 5.17518 50.5699 5.46953C50.0107 5.76818 49.4901 6.13424 49.0199 6.55953L48.8199 6.72953V5.32953H46.5099V22.9995L48.8499 21.7895V16.7895L49.0599 17.0095C49.4641 17.4272 49.9421 17.7662 50.4699 18.0095C51.0579 18.2942 51.7012 18.4462 52.3544 18.4548C53.0075 18.4635 53.6546 18.3285 54.2499 18.0595C54.8791 17.7916 55.4372 17.3808 55.8799 16.8595" fill="#335658" fill-opacity="0.7"/>
</svg>
